<svg width="107" height="25" viewBox="0 0 107 25" fill="none" xmlns="http://www.w3.org/2000/svg">
<path d="M25.3 20.23L21.03 24.5H0.8V-1.66893e-06H21.03L25.3 4.27V20.23ZM19.84 17.99V6.51L18.79 5.46H6.26V19.04H18.79L19.84 17.99ZM28.6121 24.5V21.56L38.3071 -1.66893e-06H44.2921L53.9872 21.56V24.5H49.3321L41.2821 6.65L33.2671 24.5H28.6121ZM63.2315 24.5V19.04L53.7115 9.52V-1.66893e-06H59.1715V7.28L65.5065 13.615H66.4165L72.7515 7.28V-1.66893e-06H78.2115V9.52L68.6915 19.04V24.5H63.2315ZM102.009 -1.66893e-06H106.314V24.5H100.889V8.155H95.4288V2.73H99.2788L102.009 -1.66893e-06Z" fill="#E7E7E7"/>
</svg>
