<svg width="121" height="25" viewBox="0 0 121 25" fill="none" xmlns="http://www.w3.org/2000/svg">
<path d="M25.3029 20.73L21.0329 25H0.80293V0.499998H21.0329L25.3029 4.77V20.73ZM19.8429 18.49V7.01L18.7929 5.96H6.26293V19.54H18.7929L19.8429 18.49ZM28.6151 25V22.06L38.3101 0.499998H44.2951L53.9901 22.06V25H49.3351L41.2851 7.15L33.2701 25H28.6151ZM63.2345 25V19.54L53.7145 10.02V0.499998H59.1745V7.78L65.5095 14.115H66.4195L72.7545 7.78V0.499998H78.2145V10.02L68.6945 19.54V25H63.2345ZM120.387 4.805V11.7L104.707 19.54H120.387V25H95.8867V17.86L114.927 8.34V7.045L113.842 5.96H102.432L101.347 7.045V10.02H95.8867V4.805L100.192 0.499998H116.082L120.387 4.805Z" fill="#E7E7E7"/>
</svg>
