<svg width="121" height="25" viewBox="0 0 121 25" fill="none" xmlns="http://www.w3.org/2000/svg">
<path d="M25.3 20.23L21.03 24.5H0.8V-1.66893e-06H21.03L25.3 4.27V20.23ZM19.84 17.99V6.51L18.79 5.46H6.26V19.04H18.79L19.84 17.99ZM28.6121 24.5V21.56L38.3071 -1.66893e-06H44.2921L53.9872 21.56V24.5H49.3321L41.2821 6.65L33.2671 24.5H28.6121ZM63.2315 24.5V19.04L53.7115 9.52V-1.66893e-06H59.1715V7.28L65.5065 13.615H66.4165L72.7515 7.28V-1.66893e-06H78.2115V9.52L68.6915 19.04V24.5H63.2315ZM120.419 8.155L117.689 10.885V13.615L120.419 16.345V20.23L116.149 24.5H99.4188L95.9188 21V14.98H101.379V18.76L101.659 19.04H113.909L114.959 17.99V14.98H105.439V9.52H114.959V6.51L113.909 5.46H101.659L101.379 5.74V9.52H95.9188V3.5L99.4188 -1.66893e-06H116.149L120.419 4.27V8.155Z" fill="#E7E7E7"/>
</svg>
