<svg width="235" height="26" viewBox="0 0 235 26" fill="none" xmlns="http://www.w3.org/2000/svg">
<path d="M5.7 16.915C5.595 16.95 5.525 17.055 5.525 17.16V20.1H25.125V25H0.625V17.16C0.625 14.955 2.025 12.995 4.125 12.26L24.705 5.4H0.625V0.499998H20.225C22.885 0.499998 25.02 2.635 25.09 5.295H25.125V10.44L5.7 16.915ZM50.7975 12.12C52.3725 13.45 53.4225 15.445 53.4225 17.65C53.4225 21.71 50.0975 25 46.0725 25H36.2725C32.2125 25 28.9225 21.71 28.9225 17.65C28.9225 15.445 29.9375 13.45 31.5125 12.12C30.6375 10.895 30.1475 9.46 30.1475 7.85C30.1475 3.825 33.4375 0.499998 37.4975 0.499998H44.8475C48.8725 0.499998 52.1975 3.825 52.1975 7.85C52.1975 9.46 51.6725 10.895 50.7975 12.12ZM37.4975 5.4C36.1325 5.4 35.0475 6.52 35.0475 7.85C35.0475 9.215 36.1325 10.3 37.4975 10.3H44.8475C46.1775 10.3 47.2975 9.215 47.2975 7.85C47.2975 6.52 46.1775 5.4 44.8475 5.4H37.4975ZM46.0725 20.1C47.4025 20.1 48.5225 19.015 48.5225 17.65C48.5225 16.32 47.4025 15.2 46.0725 15.2V15.095C45.6525 15.165 45.2325 15.2 44.8475 15.2H37.4975C37.0775 15.2 36.6575 15.165 36.2725 15.095V15.2C34.9075 15.2 33.8225 16.32 33.8225 17.65C33.8225 19.015 34.9075 20.1 36.2725 20.1H46.0725ZM66.0504 0.534998H71.1954L63.0404 25.035H57.8954L66.0504 0.534998ZM100.18 8.48C100.18 8.69 100.145 8.9 100.145 9.075H100.18V17.65C100.18 21.71 96.8903 25 92.8303 25H83.0303C79.7053 25 76.9053 22.76 76.0303 19.715L80.5803 17.65C80.5803 19.015 81.7003 20.1 83.0303 20.1H92.8303C94.1953 20.1 95.2803 19.015 95.2803 17.65V15.83C94.3703 16.215 93.3203 16.425 92.2353 16.425H83.6603C79.2853 16.425 75.7153 12.855 75.7153 8.48C75.7153 4.105 79.2853 0.499998 83.6603 0.499998H92.2353C96.6103 0.499998 100.18 4.105 100.18 8.48ZM92.2353 11.525C93.9153 11.525 95.2803 10.16 95.2803 8.48C95.2803 6.8 93.9153 5.435 92.2353 5.435H83.6603C81.9803 5.435 80.6153 6.8 80.6153 8.48C80.6153 10.16 81.9803 11.525 83.6603 11.525H92.2353ZM113.013 0.534998H118.158L110.003 25.035H104.858L113.013 0.534998ZM127.858 16.915C127.753 16.95 127.683 17.055 127.683 17.16V20.1H147.283V25H122.783V17.16C122.783 14.955 124.183 12.995 126.283 12.26L146.863 5.4H122.783V0.499998H142.383C145.043 0.499998 147.178 2.635 147.248 5.295H147.283V10.44L127.858 16.915ZM170.265 0.499998C173.975 0.499998 177.055 3.58 177.055 7.29V18.245C177.055 21.955 173.975 25 170.265 25H159.31C155.6 25 152.555 21.955 152.555 18.245V7.29C152.555 3.58 155.6 0.499998 159.31 0.499998H170.265ZM172.155 18.245V7.29C172.155 6.275 171.28 5.4 170.265 5.4H159.31C158.295 5.4 157.455 6.275 157.455 7.29V18.245C157.455 19.26 158.295 20.1 159.31 20.1H170.265C171.28 20.1 172.155 19.26 172.155 18.245ZM186.784 16.915C186.679 16.95 186.609 17.055 186.609 17.16V20.1H206.209V25H181.709V17.16C181.709 14.955 183.109 12.995 185.209 12.26L205.789 5.4H181.709V0.499998H201.309C203.969 0.499998 206.104 2.635 206.174 5.295H206.209V10.44L186.784 16.915ZM234.746 5.4H210.246V0.499998H234.746V5.4ZM220.046 15.2V10.3L234.746 5.4V10.3L231.281 11.455C233.346 12.75 234.746 15.06 234.746 17.65C234.746 21.71 231.421 25 227.396 25H217.596C213.536 25 210.246 21.71 210.246 17.65V16.425H215.146V17.65C215.146 19.015 216.231 20.1 217.596 20.1H227.396C228.726 20.1 229.846 19.015 229.846 17.65C229.846 16.32 228.726 15.2 227.396 15.2H220.046Z" fill="#CA40CD"/>
</svg>
