<svg width="620" height="420" viewBox="0 0 620 420" fill="none" xmlns="http://www.w3.org/2000/svg">
<path d="M0.568 0.399999H19.132V4.544L9.668 20H5.86L15.828 3.676H0.568V0.399999ZM25.2983 7.764H22.0503V4.488H25.2983V7.764ZM25.2983 15.94H22.0503V12.664H25.2983V15.94ZM47.9856 3.676H28.4136V0.399999H47.9856V3.676ZM36.5616 11.852V8.464L48.0136 3.676V6.896L42.8056 9.024C43.5616 9.024 44.1776 9.108 44.8496 9.388C45.4936 9.64 46.0816 10.06 46.5576 10.564C47.4816 11.572 48.0136 12.944 48.0136 14.288C48.0136 17.452 45.4376 20 42.2736 20H34.1256C30.9616 20 28.4136 17.452 28.4136 14.288V13.672H31.6616V14.288C31.6616 15.66 32.7536 16.752 34.1256 16.752H42.2736C43.6456 16.752 44.7376 15.66 44.7376 14.288C44.7376 12.944 43.6456 11.852 42.2736 11.852H36.5616ZM66.0933 0.399999C68.9773 0.399999 71.3293 2.78 71.3572 5.664V14.764C71.3572 17.648 68.9773 20 66.0933 20H56.9932C54.1093 20 51.7572 17.648 51.7572 14.764V5.664C51.7572 2.78 54.1093 0.399999 56.9932 0.399999H66.0933ZM68.0813 14.764V5.664C68.0813 4.572 67.1853 3.676 66.0933 3.676H56.9932C55.9012 3.676 55.0052 4.572 55.0052 5.664V14.764C55.0052 15.856 55.9012 16.752 56.9932 16.752H66.0933C67.1853 16.752 68.0813 15.856 68.0813 14.764ZM139.534 7.764H136.258V6.42C136.258 4.908 135.026 3.676 133.514 3.676H125.926C124.414 3.676 123.182 4.908 123.182 6.42V14.008C123.182 15.52 124.414 16.752 125.926 16.752H133.514C135.026 16.752 136.258 15.52 136.258 14.008V12.664H139.534V14.008C139.534 17.312 136.818 20 133.514 20H125.926C122.622 20 119.934 17.312 119.934 14.008V6.42C119.934 3.116 122.622 0.399999 125.926 0.399999H133.514C136.818 0.399999 139.534 3.116 139.534 6.42V7.764ZM153.597 2.444C158.441 2.444 162.389 6.392 162.389 11.236V20H159.113V11.236C159.113 8.184 156.649 5.72 153.597 5.72H146.037V20H142.789V0.399999H146.037V2.444H153.597ZM185.007 11.656L168.655 13.7V14.764C168.655 15.856 169.551 16.752 170.643 16.752H179.743C180.835 16.752 181.731 15.856 181.731 14.764V14.708H185.007V14.764C185.007 17.648 182.627 20 179.743 20H170.643C167.759 20 165.407 17.648 165.407 14.764V7.708C165.407 4.796 167.759 2.444 170.643 2.444H179.743C182.627 2.444 185.007 4.796 185.007 7.708V11.656ZM168.655 7.708V10.396L181.731 8.772V7.708C181.731 6.616 180.835 5.72 179.743 5.72H170.643C169.551 5.72 168.655 6.616 168.655 7.708ZM207.608 7.764H204.332V7.708C204.332 6.616 203.436 5.72 202.344 5.72H193.244C192.152 5.72 191.256 6.616 191.256 7.708V14.764C191.256 15.856 192.152 16.752 193.244 16.752H202.344C203.436 16.752 204.332 15.856 204.332 14.764V14.708H207.608V14.764C207.608 17.648 205.228 20 202.344 20H193.244C190.36 20 188.008 17.648 188.008 14.764V7.708C188.008 4.796 190.36 2.444 193.244 2.444H202.344C205.228 2.444 207.608 4.796 207.608 7.708V7.764ZM230.86 2.444L222.992 13.504L230.3 20H225.4L213.864 9.78V20H210.616V0.399999H213.864V5.412L220.528 11.32L226.856 2.444H230.86ZM247.244 20H243.996V5.524H247.244V20ZM247.244 2.668H243.996V0.399999H247.244V2.668ZM266.733 2.444C269.617 2.444 271.969 4.796 271.969 7.708V20H268.693V7.708C268.693 6.616 267.797 5.72 266.733 5.72H255.645V2.444H266.733ZM249.065 3.76L251.361 1.436L255.645 5.72V20H252.369V7.064L249.065 3.76ZM305.906 7.764H302.63V7.512C302.63 6.532 301.818 5.72 300.838 5.72H291.346C290.366 5.72 289.554 6.532 289.554 7.512C289.554 8.464 290.31 9.22 291.234 9.304L301.146 9.92C303.806 10.088 305.906 12.3 305.906 14.96C305.906 17.76 303.61 20 300.838 20H291.346C288.574 20 286.306 17.76 286.306 14.96V14.708H289.554V14.96C289.554 15.94 290.366 16.752 291.346 16.752H300.838C301.818 16.752 302.63 15.94 302.63 14.96C302.63 14.008 301.902 13.224 300.95 13.168L291.038 12.552C288.378 12.384 286.306 10.172 286.306 7.512C286.306 4.712 288.574 2.444 291.346 2.444H300.838C303.638 2.444 305.906 4.712 305.906 7.512V7.764ZM318.295 6.756H312.163V14.26C312.163 15.632 313.283 16.752 314.655 16.752H318.295V20H314.655C311.491 20 308.915 17.452 308.915 14.26V0.399999H312.163V3.48H318.295V6.756ZM335.127 2.444C338.011 2.444 340.391 4.796 340.391 7.708V14.764C340.391 17.648 338.011 20 335.127 20H326.027C323.143 20 320.791 17.648 320.791 14.764V10.984L337.059 6.896L336.639 6.42C336.247 5.972 335.715 5.72 335.127 5.72H326.027C324.935 5.72 324.039 6.616 324.039 7.708V7.764H320.791V7.708C320.791 4.796 323.143 2.444 326.027 2.444H335.127ZM337.115 14.764V10.256L324.039 13.532V14.764C324.039 15.856 324.935 16.752 326.027 16.752H335.127C336.219 16.752 337.115 15.856 337.115 14.764ZM349.943 2.444H359.127V5.72H349.943C348.235 5.72 346.863 7.092 346.863 8.8V20H343.615V8.8C343.615 5.3 346.443 2.444 349.943 2.444ZM370.592 6.756H364.46V14.26C364.46 15.632 365.58 16.752 366.952 16.752H370.592V20H366.952C363.788 20 361.212 17.452 361.212 14.26V0.399999H364.46V3.48H370.592V6.756ZM392.547 7.764H389.271V7.512C389.271 6.532 388.459 5.72 387.479 5.72H377.987C377.007 5.72 376.195 6.532 376.195 7.512C376.195 8.464 376.951 9.22 377.875 9.304L387.787 9.92C390.447 10.088 392.547 12.3 392.547 14.96C392.547 17.76 390.251 20 387.479 20H377.987C375.215 20 372.947 17.76 372.947 14.96V14.708H376.195V14.96C376.195 15.94 377.007 16.752 377.987 16.752H387.479C388.459 16.752 389.271 15.94 389.271 14.96C389.271 14.008 388.543 13.224 387.591 13.168L377.679 12.552C375.019 12.384 372.947 10.172 372.947 7.512C372.947 4.712 375.215 2.444 377.987 2.444H387.479C390.279 2.444 392.547 4.712 392.547 7.512V7.764ZM0.568 50.4H19.132V54.544L9.668 70H5.86L15.828 53.676H0.568V50.4ZM25.2983 57.764H22.0503V54.488H25.2983V57.764ZM25.2983 65.94H22.0503V62.664H25.2983V65.94ZM47.9856 53.676H28.4136V50.4H47.9856V53.676ZM36.5616 61.852V58.464L48.0136 53.676V56.896L42.8056 59.024C43.5616 59.024 44.1776 59.108 44.8496 59.388C45.4936 59.64 46.0816 60.06 46.5576 60.564C47.4816 61.572 48.0136 62.944 48.0136 64.288C48.0136 67.452 45.4376 70 42.2736 70H34.1256C30.9616 70 28.4136 67.452 28.4136 64.288V63.672H31.6616V64.288C31.6616 65.66 32.7536 66.752 34.1256 66.752H42.2736C43.6456 66.752 44.7376 65.66 44.7376 64.288C44.7376 62.944 43.6456 61.852 42.2736 61.852H36.5616ZM66.0933 50.4C68.9773 50.4 71.3293 52.78 71.3572 55.664V64.764C71.3572 67.648 68.9773 70 66.0933 70H56.9932C54.1093 70 51.7572 67.648 51.7572 64.764V55.664C51.7572 52.78 54.1093 50.4 56.9932 50.4H66.0933ZM68.0813 64.764V55.664C68.0813 54.572 67.1853 53.676 66.0933 53.676H56.9932C55.9012 53.676 55.0052 54.572 55.0052 55.664V64.764C55.0052 65.856 55.9012 66.752 56.9932 66.752H66.0933C67.1853 66.752 68.0813 65.856 68.0813 64.764ZM133.934 50.4C137.238 50.4 139.926 53.116 139.926 56.42V64.008C139.926 67.312 137.238 70 133.934 70H120.354V50.4H133.934ZM136.678 64.008V56.42C136.678 54.908 135.446 53.676 133.934 53.676H123.602V66.752H133.934C135.446 66.752 136.678 65.52 136.678 64.008ZM157.389 52.444C160.273 52.444 162.653 54.796 162.653 57.708V64.764C162.653 67.648 160.273 70 157.389 70H148.289C145.405 70 143.053 67.648 143.053 64.764V57.708C143.053 54.796 145.405 52.444 148.289 52.444H157.389ZM159.377 64.764V57.708C159.377 56.616 158.481 55.72 157.389 55.72H148.289C147.197 55.72 146.301 56.616 146.301 57.708V64.764C146.301 65.856 147.197 66.752 148.289 66.752H157.389C158.481 66.752 159.377 65.856 159.377 64.764ZM180.099 52.444C182.983 52.444 185.363 54.796 185.363 57.708V64.764C185.363 67.648 182.983 70 180.099 70H170.999C168.115 70 165.763 67.648 165.763 64.764V57.708C165.763 54.796 168.115 52.444 170.999 52.444H180.099ZM182.087 64.764V57.708C182.087 56.616 181.191 55.72 180.099 55.72H170.999C169.907 55.72 169.011 56.616 169.011 57.708V64.764C169.011 65.856 169.907 66.752 170.999 66.752H180.099C181.191 66.752 182.087 65.856 182.087 64.764ZM194.912 52.444H204.096V55.72H194.912C193.204 55.72 191.832 57.092 191.832 58.8V70H188.584V58.8C188.584 55.3 191.412 52.444 194.912 52.444ZM225.389 57.764H222.113V57.512C222.113 56.532 221.301 55.72 220.321 55.72H210.829C209.849 55.72 209.037 56.532 209.037 57.512C209.037 58.464 209.793 59.22 210.717 59.304L220.629 59.92C223.289 60.088 225.389 62.3 225.389 64.96C225.389 67.76 223.093 70 220.321 70H210.829C208.057 70 205.789 67.76 205.789 64.96V64.708H209.037V64.96C209.037 65.94 209.849 66.752 210.829 66.752H220.321C221.301 66.752 222.113 65.94 222.113 64.96C222.113 64.008 221.385 63.224 220.433 63.168L210.521 62.552C207.861 62.384 205.789 60.172 205.789 57.512C205.789 54.712 208.057 52.444 210.829 52.444H220.321C223.121 52.444 225.389 54.712 225.389 57.512V57.764ZM253.875 52.444C256.759 52.444 259.139 54.796 259.139 57.708V64.764C259.139 67.648 256.759 70 253.875 70H244.775C241.891 70 239.539 67.648 239.539 64.764V57.708C239.539 54.796 241.891 52.444 244.775 52.444H253.875ZM255.863 64.764V57.708C255.863 56.616 254.967 55.72 253.875 55.72H244.775C243.683 55.72 242.787 56.616 242.787 57.708V64.764C242.787 65.856 243.683 66.752 244.775 66.752H253.875C254.967 66.752 255.863 65.856 255.863 64.764ZM273.42 52.444C278.264 52.444 282.212 56.392 282.212 61.236C282.212 66.08 278.264 70 273.42 70H265.86V74.088H262.612V52.444H273.42ZM273.42 66.752C276.472 66.752 278.936 64.26 278.936 61.236C278.936 58.184 276.472 55.72 273.42 55.72H265.86V66.752H273.42ZM304.394 61.656L288.042 63.7V64.764C288.042 65.856 288.938 66.752 290.03 66.752H299.13C300.222 66.752 301.118 65.856 301.118 64.764V64.708H304.394V64.764C304.394 67.648 302.014 70 299.13 70H290.03C287.146 70 284.794 67.648 284.794 64.764V57.708C284.794 54.796 287.146 52.444 290.03 52.444H299.13C302.014 52.444 304.394 54.796 304.394 57.708V61.656ZM288.042 57.708V60.396L301.118 58.772V57.708C301.118 56.616 300.222 55.72 299.13 55.72H290.03C288.938 55.72 288.042 56.616 288.042 57.708ZM323.445 52.444C326.329 52.444 328.681 54.796 328.681 57.708V70H325.405V57.708C325.405 56.616 324.509 55.72 323.445 55.72H312.357V52.444H323.445ZM305.777 53.76L308.073 51.436L312.357 55.72V70H309.081V57.064L305.777 53.76ZM347.134 56.532H354.918V59.808H346.742V70H343.494V55.384L349.262 50.4H354.302L347.134 56.532ZM371.401 52.444C374.285 52.444 376.665 54.796 376.665 57.708V64.764C376.665 67.648 374.285 70 371.401 70H362.301C359.417 70 357.065 67.648 357.065 64.764V57.708C357.065 54.796 359.417 52.444 362.301 52.444H371.401ZM373.389 64.764V57.708C373.389 56.616 372.493 55.72 371.401 55.72H362.301C361.209 55.72 360.313 56.616 360.313 57.708V64.764C360.313 65.856 361.209 66.752 362.301 66.752H371.401C372.493 66.752 373.389 65.856 373.389 64.764ZM386.215 52.444H395.399V55.72H386.215C384.507 55.72 383.135 57.092 383.135 58.8V70H379.887V58.8C379.887 55.3 382.715 52.444 386.215 52.444ZM419.796 52.444C424.64 52.444 428.588 56.392 428.588 61.236C428.588 66.08 424.64 70 419.796 70H412.236V74.088H408.988V52.444H419.796ZM419.796 66.752C422.848 66.752 425.312 64.26 425.312 61.236C425.312 58.184 422.848 55.72 419.796 55.72H412.236V66.752H419.796ZM445.393 52.444C448.277 52.444 450.657 54.796 450.657 57.708V64.764C450.657 67.648 448.277 70 445.393 70H436.293C433.409 70 431.057 67.648 431.057 64.764V60.984L447.325 56.896L446.905 56.42C446.513 55.972 445.981 55.72 445.393 55.72H436.293C435.201 55.72 434.305 56.616 434.305 57.708V57.764H431.057V57.708C431.057 54.796 433.409 52.444 436.293 52.444H445.393ZM447.381 64.764V60.256L434.305 63.532V64.764C434.305 65.856 435.201 66.752 436.293 66.752H445.393C446.485 66.752 447.381 65.856 447.381 64.764ZM460.209 52.444H469.393V55.72H460.209C458.501 55.72 457.129 57.092 457.129 58.8V70H453.881V58.8C453.881 55.3 456.709 52.444 460.209 52.444ZM480.858 56.756H474.726V64.26C474.726 65.632 475.846 66.752 477.218 66.752H480.858V70H477.218C474.054 70 471.478 67.452 471.478 64.26V50.4H474.726V53.48H480.858V56.756ZM486.742 70H483.494V55.524H486.742V70ZM486.742 52.668H483.494V50.4H486.742V52.668ZM509.478 57.764H506.202V57.708C506.202 56.616 505.306 55.72 504.214 55.72H495.114C494.022 55.72 493.126 56.616 493.126 57.708V64.764C493.126 65.856 494.022 66.752 495.114 66.752H504.214C505.306 66.752 506.202 65.856 506.202 64.764V64.708H509.478V64.764C509.478 67.648 507.098 70 504.214 70H495.114C492.23 70 489.878 67.648 489.878 64.764V57.708C489.878 54.796 492.23 52.444 495.114 52.444H504.214C507.098 52.444 509.478 54.796 509.478 57.708V57.764ZM515.399 70H512.151V55.524H515.399V70ZM515.399 52.668H512.151V50.4H515.399V52.668ZM529.708 52.444C534.552 52.444 538.5 56.392 538.5 61.236C538.5 66.08 534.552 70 529.708 70H522.148V74.088H518.9V52.444H529.708ZM529.708 66.752C532.76 66.752 535.224 64.26 535.224 61.236C535.224 58.184 532.76 55.72 529.708 55.72H522.148V66.752H529.708ZM555.305 52.444C558.189 52.444 560.569 54.796 560.569 57.708V64.764C560.569 67.648 558.189 70 555.305 70H546.205C543.321 70 540.969 67.648 540.969 64.764V60.984L557.237 56.896L556.817 56.42C556.425 55.972 555.893 55.72 555.305 55.72H546.205C545.113 55.72 544.217 56.616 544.217 57.708V57.764H540.969V57.708C540.969 54.796 543.321 52.444 546.205 52.444H555.305ZM557.293 64.764V60.256L544.217 63.532V64.764C544.217 65.856 545.113 66.752 546.205 66.752H555.305C556.397 66.752 557.293 65.856 557.293 64.764ZM579.678 52.444C582.562 52.444 584.914 54.796 584.914 57.708V70H581.638V57.708C581.638 56.616 580.742 55.72 579.678 55.72H568.59V52.444H579.678ZM562.01 53.76L564.306 51.436L568.59 55.72V70H565.314V57.064L562.01 53.76ZM597.743 56.756H591.611V64.26C591.611 65.632 592.731 66.752 594.103 66.752H597.743V70H594.103C590.939 70 588.363 67.452 588.363 64.26V50.4H591.611V53.48H597.743V56.756ZM619.698 57.764H616.422V57.512C616.422 56.532 615.61 55.72 614.63 55.72H605.138C604.158 55.72 603.346 56.532 603.346 57.512C603.346 58.464 604.102 59.22 605.026 59.304L614.938 59.92C617.598 60.088 619.698 62.3 619.698 64.96C619.698 67.76 617.402 70 614.63 70H605.138C602.366 70 600.098 67.76 600.098 64.96V64.708H603.346V64.96C603.346 65.94 604.158 66.752 605.138 66.752H614.63C615.61 66.752 616.422 65.94 616.422 64.96C616.422 64.008 615.694 63.224 614.742 63.168L604.83 62.552C602.17 62.384 600.098 60.172 600.098 57.512C600.098 54.712 602.366 52.444 605.138 52.444H614.63C617.43 52.444 619.698 54.712 619.698 57.512V57.764ZM18.544 109.976C19.832 111.068 20.588 112.664 20.588 114.288C20.588 117.452 18.012 120 14.848 120H6.7C3.536 120 0.988 117.452 0.988 114.288C0.988 112.664 1.716 111.068 3.004 109.976L3.284 109.724L3.06 109.416C2.36 108.464 1.996 107.316 1.996 106.14C1.996 102.976 4.572 100.4 7.708 100.4H13.84C16.976 100.4 19.552 102.976 19.552 106.14C19.552 107.316 19.188 108.436 18.488 109.416L18.264 109.724L18.544 109.976ZM7.708 103.676C6.364 103.676 5.272 104.768 5.272 106.14C5.272 107.484 6.364 108.576 7.708 108.576H13.84C15.184 108.576 16.276 107.484 16.276 106.14C16.276 104.768 15.184 103.676 13.84 103.676H7.708ZM14.848 116.752C16.22 116.752 17.312 115.66 17.312 114.288C17.312 112.944 16.22 111.852 14.848 111.852H6.7C5.328 111.852 4.236 112.944 4.236 114.288C4.236 115.66 5.328 116.752 6.7 116.752H14.848ZM26.9937 107.764H23.7457V104.488H26.9937V107.764ZM26.9937 115.94H23.7457V112.664H26.9937V115.94ZM44.6689 100.4C47.5529 100.4 49.9049 102.78 49.9329 105.664V114.764C49.9329 117.648 47.5529 120 44.6689 120H35.5689C32.6849 120 30.3329 117.648 30.3329 114.764V105.664C30.3329 102.78 32.6849 100.4 35.5689 100.4H44.6689ZM46.6569 114.764V105.664C46.6569 104.572 45.7609 103.676 44.6689 103.676H35.5689C34.4769 103.676 33.5809 104.572 33.5809 105.664V114.764C33.5809 115.856 34.4769 116.752 35.5689 116.752H44.6689C45.7609 116.752 46.6569 115.856 46.6569 114.764ZM68.062 100.4C70.946 100.4 73.298 102.78 73.326 105.664V114.764C73.326 117.648 70.946 120 68.062 120H58.962C56.078 120 53.726 117.648 53.726 114.764V105.664C53.726 102.78 56.078 100.4 58.962 100.4H68.062ZM70.05 114.764V105.664C70.05 104.572 69.154 103.676 68.062 103.676H58.962C57.87 103.676 56.974 104.572 56.974 105.664V114.764C56.974 115.856 57.87 116.752 58.962 116.752H68.062C69.154 116.752 70.05 115.856 70.05 114.764ZM135.482 100.4C138.786 100.4 141.474 103.116 141.474 106.42V114.008C141.474 117.312 138.786 120 135.482 120H127.894C124.59 120 121.902 117.312 121.902 114.008V106.42C121.902 103.116 124.59 100.4 127.894 100.4H135.482ZM138.226 114.008V106.42C138.226 104.908 136.994 103.676 135.482 103.676H127.894C126.382 103.676 125.15 104.908 125.15 106.42V114.008C125.15 115.52 126.382 116.752 127.894 116.752H135.482C136.994 116.752 138.226 115.52 138.226 114.008ZM155.784 102.444C160.628 102.444 164.576 106.392 164.576 111.236C164.576 116.08 160.628 120 155.784 120H148.224V124.088H144.976V102.444H155.784ZM155.784 116.752C158.836 116.752 161.3 114.26 161.3 111.236C161.3 108.184 158.836 105.72 155.784 105.72H148.224V116.752H155.784ZM186.757 111.656L170.405 113.7V114.764C170.405 115.856 171.301 116.752 172.393 116.752H181.493C182.585 116.752 183.481 115.856 183.481 114.764V114.708H186.757V114.764C186.757 117.648 184.377 120 181.493 120H172.393C169.509 120 167.157 117.648 167.157 114.764V107.708C167.157 104.796 169.509 102.444 172.393 102.444H181.493C184.377 102.444 186.757 104.796 186.757 107.708V111.656ZM170.405 107.708V110.396L183.481 108.772V107.708C183.481 106.616 182.585 105.72 181.493 105.72H172.393C171.301 105.72 170.405 106.616 170.405 107.708ZM205.809 102.444C208.693 102.444 211.045 104.796 211.045 107.708V120H207.769V107.708C207.769 106.616 206.873 105.72 205.809 105.72H194.721V102.444H205.809ZM188.141 103.76L190.437 101.436L194.721 105.72V120H191.445V107.064L188.141 103.76ZM217.63 120H214.382V105.524H217.63V120ZM217.63 102.668H214.382V100.4H217.63V102.668ZM237.119 102.444C240.003 102.444 242.355 104.796 242.355 107.708V120H239.079V107.708C239.079 106.616 238.183 105.72 237.119 105.72H226.031V102.444H237.119ZM219.451 103.76L221.747 101.436L226.031 105.72V120H222.755V107.064L219.451 103.76ZM265.992 101.436L268.316 103.76L265.012 107.064V112.72C265.012 115.632 262.632 117.984 259.748 117.984H250.648C247.764 117.984 245.412 115.632 245.412 112.72V107.708C245.412 104.796 247.764 102.444 250.648 102.444H261.708V105.72H250.648C249.556 105.72 248.66 106.616 248.66 107.708V112.72C248.66 113.812 249.556 114.708 250.648 114.708H259.748C260.84 114.708 261.736 113.812 261.736 112.72V105.72L265.992 101.436ZM261.736 122.604V120.504H265.012V122.604C265.012 125.516 262.632 127.868 259.748 127.868H250.648C247.764 127.868 245.412 125.516 245.412 122.604V120.504H248.66V122.604C248.66 123.724 249.556 124.592 250.648 124.592H259.748C260.84 124.592 261.736 123.696 261.736 122.604ZM300.948 107.764H297.672V106.42C297.672 104.908 296.44 103.676 294.928 103.676H287.34C285.828 103.676 284.596 104.908 284.596 106.42V114.008C284.596 115.52 285.828 116.752 287.34 116.752H294.928C296.44 116.752 297.672 115.52 297.672 114.008V112.664H300.948V114.008C300.948 117.312 298.232 120 294.928 120H287.34C284.036 120 281.348 117.312 281.348 114.008V106.42C281.348 103.116 284.036 100.4 287.34 100.4H294.928C298.232 100.4 300.948 103.116 300.948 106.42V107.764ZM323.439 111.656L307.087 113.7V114.764C307.087 115.856 307.983 116.752 309.075 116.752H318.175C319.267 116.752 320.163 115.856 320.163 114.764V114.708H323.439V114.764C323.439 117.648 321.059 120 318.175 120H309.075C306.191 120 303.839 117.648 303.839 114.764V107.708C303.839 104.796 306.191 102.444 309.075 102.444H318.175C321.059 102.444 323.439 104.796 323.439 107.708V111.656ZM307.087 107.708V110.396L320.163 108.772V107.708C320.163 106.616 319.267 105.72 318.175 105.72H309.075C307.983 105.72 307.087 106.616 307.087 107.708ZM332.879 102.444H342.063V105.72H332.879C331.171 105.72 329.799 107.092 329.799 108.8V120H326.551V108.8C326.551 105.3 329.379 102.444 332.879 102.444ZM363.444 111.656L347.092 113.7V114.764C347.092 115.856 347.988 116.752 349.08 116.752H358.18C359.272 116.752 360.168 115.856 360.168 114.764V114.708H363.444V114.764C363.444 117.648 361.064 120 358.18 120H349.08C346.196 120 343.844 117.648 343.844 114.764V107.708C343.844 104.796 346.196 102.444 349.08 102.444H358.18C361.064 102.444 363.444 104.796 363.444 107.708V111.656ZM347.092 107.708V110.396L360.168 108.772V107.708C360.168 106.616 359.272 105.72 358.18 105.72H349.08C347.988 105.72 347.092 106.616 347.092 107.708ZM364.827 103.816L367.123 101.492L371.407 105.776V120H368.131V107.12L364.827 103.816ZM386.555 102.444C389.467 102.444 391.819 104.796 391.819 107.708V120H388.543V107.708C388.543 106.616 387.647 105.72 386.555 105.72H383.587C382.495 105.72 381.599 106.616 381.599 107.708V120H378.323V107.708C378.323 106.616 377.455 105.72 376.363 105.72H371.407V102.444H376.363C377.567 102.444 378.743 102.892 379.695 103.704L379.975 103.928L380.227 103.704C381.207 102.892 382.355 102.444 383.587 102.444H386.555ZM409.451 102.444C412.335 102.444 414.715 104.796 414.715 107.708V114.764C414.715 117.648 412.335 120 409.451 120H400.351C397.467 120 395.115 117.648 395.115 114.764V107.708C395.115 104.796 397.467 102.444 400.351 102.444H409.451ZM411.439 114.764V107.708C411.439 106.616 410.543 105.72 409.451 105.72H400.351C399.259 105.72 398.363 106.616 398.363 107.708V114.764C398.363 115.856 399.259 116.752 400.351 116.752H409.451C410.543 116.752 411.439 115.856 411.439 114.764ZM433.821 102.444C436.705 102.444 439.057 104.796 439.057 107.708V120H435.781V107.708C435.781 106.616 434.885 105.72 433.821 105.72H422.733V102.444H433.821ZM416.153 103.76L418.449 101.436L422.733 105.72V120H419.457V107.064L416.153 103.76ZM444.034 102.444L451.93 120H448.234L440.338 102.444H444.034ZM458.874 102.444H462.514L452.518 128.176H448.878L451.734 120.84L451.874 120.42L458.874 102.444ZM18.544 159.976C19.832 161.068 20.588 162.664 20.588 164.288C20.588 167.452 18.012 170 14.848 170H6.7C3.536 170 0.988 167.452 0.988 164.288C0.988 162.664 1.716 161.068 3.004 159.976L3.284 159.724L3.06 159.416C2.36 158.464 1.996 157.316 1.996 156.14C1.996 152.976 4.572 150.4 7.708 150.4H13.84C16.976 150.4 19.552 152.976 19.552 156.14C19.552 157.316 19.188 158.436 18.488 159.416L18.264 159.724L18.544 159.976ZM7.708 153.676C6.364 153.676 5.272 154.768 5.272 156.14C5.272 157.484 6.364 158.576 7.708 158.576H13.84C15.184 158.576 16.276 157.484 16.276 156.14C16.276 154.768 15.184 153.676 13.84 153.676H7.708ZM14.848 166.752C16.22 166.752 17.312 165.66 17.312 164.288C17.312 162.944 16.22 161.852 14.848 161.852H6.7C5.328 161.852 4.236 162.944 4.236 164.288C4.236 165.66 5.328 166.752 6.7 166.752H14.848ZM26.9937 157.764H23.7457V154.488H26.9937V157.764ZM26.9937 165.94H23.7457V162.664H26.9937V165.94ZM49.6809 153.676H30.1089V150.4H49.6809V153.676ZM38.2569 161.852V158.464L49.7089 153.676V156.896L44.5009 159.024C45.2569 159.024 45.8729 159.108 46.5449 159.388C47.1889 159.64 47.7769 160.06 48.2529 160.564C49.1769 161.572 49.7089 162.944 49.7089 164.288C49.7089 167.452 47.1329 170 43.9689 170H35.8209C32.6569 170 30.1089 167.452 30.1089 164.288V163.672H33.3569V164.288C33.3569 165.66 34.4489 166.752 35.8209 166.752H43.9689C45.3409 166.752 46.4329 165.66 46.4329 164.288C46.4329 162.944 45.3409 161.852 43.9689 161.852H38.2569ZM67.7886 150.4C70.6726 150.4 73.0246 152.78 73.0526 155.664V164.764C73.0526 167.648 70.6726 170 67.7886 170H58.6886C55.8046 170 53.4526 167.648 53.4526 164.764V155.664C53.4526 152.78 55.8046 150.4 58.6886 150.4H67.7886ZM69.7766 164.764V155.664C69.7766 154.572 68.8806 153.676 67.7886 153.676H58.6886C57.5966 153.676 56.7006 154.572 56.7006 155.664V164.764C56.7006 165.856 57.5966 166.752 58.6886 166.752H67.7886C68.8806 166.752 69.7766 165.856 69.7766 164.764ZM138.373 150.4H141.649V170H138.373V161.852H125.297V170H122.049V150.4H125.297V158.576H138.373V150.4ZM159.383 152.444C162.267 152.444 164.647 154.796 164.647 157.708V164.764C164.647 167.648 162.267 170 159.383 170H150.283C147.399 170 145.047 167.648 145.047 164.764V160.984L161.315 156.896L160.895 156.42C160.503 155.972 159.971 155.72 159.383 155.72H150.283C149.191 155.72 148.295 156.616 148.295 157.708V157.764H145.047V157.708C145.047 154.796 147.399 152.444 150.283 152.444H159.383ZM161.371 164.764V160.256L148.295 163.532V164.764C148.295 165.856 149.191 166.752 150.283 166.752H159.383C160.475 166.752 161.371 165.856 161.371 164.764ZM187.359 157.764H184.083V157.708C184.083 156.616 183.187 155.72 182.095 155.72H172.995C171.903 155.72 171.007 156.616 171.007 157.708V164.764C171.007 165.856 171.903 166.752 172.995 166.752H182.095C183.187 166.752 184.083 165.856 184.083 164.764V164.708H187.359V164.764C187.359 167.648 184.979 170 182.095 170H172.995C170.111 170 167.759 167.648 167.759 164.764V157.708C167.759 154.796 170.111 152.444 172.995 152.444H182.095C184.979 152.444 187.359 154.796 187.359 157.708V157.764ZM210.612 152.444L202.744 163.504L210.052 170H205.152L193.616 159.78V170H190.368V150.4H193.616V155.412L200.28 161.32L206.608 152.444H210.612ZM215.716 170H212.468V155.524H215.716V170ZM215.716 152.668H212.468V150.4H215.716V152.668ZM235.205 152.444C238.089 152.444 240.441 154.796 240.441 157.708V170H237.165V157.708C237.165 156.616 236.269 155.72 235.205 155.72H224.117V152.444H235.205ZM217.537 153.76L219.833 151.436L224.117 155.72V170H220.841V157.064L217.537 153.76ZM264.078 151.436L266.402 153.76L263.098 157.064V162.72C263.098 165.632 260.718 167.984 257.834 167.984H248.734C245.85 167.984 243.498 165.632 243.498 162.72V157.708C243.498 154.796 245.85 152.444 248.734 152.444H259.794V155.72H248.734C247.642 155.72 246.746 156.616 246.746 157.708V162.72C246.746 163.812 247.642 164.708 248.734 164.708H257.834C258.926 164.708 259.822 163.812 259.822 162.72V155.72L264.078 151.436ZM259.822 172.604V170.504H263.098V172.604C263.098 175.516 260.718 177.868 257.834 177.868H248.734C245.85 177.868 243.498 175.516 243.498 172.604V170.504H246.746V172.604C246.746 173.724 247.642 174.592 248.734 174.592H257.834C258.926 174.592 259.822 173.696 259.822 172.604ZM292.986 158.576C296.15 158.576 298.726 161.152 298.726 164.288C298.726 167.452 296.15 170 292.986 170H284.838C281.814 170 279.35 167.676 279.126 164.708H282.402C282.598 165.856 283.606 166.752 284.838 166.752H292.986C294.358 166.752 295.45 165.66 295.45 164.288C295.45 162.944 294.358 161.852 292.986 161.852H284.838C281.674 161.852 279.126 159.276 279.126 156.14C279.126 152.976 281.674 150.4 284.838 150.4H292.986C296.01 150.4 298.474 152.752 298.698 155.72H295.422C295.226 154.572 294.218 153.676 292.986 153.676H284.838C283.466 153.676 282.374 154.768 282.374 156.14C282.374 157.484 283.466 158.576 284.838 158.576H292.986ZM311.035 156.756H304.903V164.26C304.903 165.632 306.023 166.752 307.395 166.752H311.035V170H307.395C304.231 170 301.655 167.452 301.655 164.26V150.4H304.903V153.48H311.035V156.756ZM327.866 152.444C330.75 152.444 333.13 154.796 333.13 157.708V164.764C333.13 167.648 330.75 170 327.866 170H318.766C315.882 170 313.53 167.648 313.53 164.764V160.984L329.798 156.896L329.378 156.42C328.986 155.972 328.454 155.72 327.866 155.72H318.766C317.674 155.72 316.778 156.616 316.778 157.708V157.764H313.53V157.708C313.53 154.796 315.882 152.444 318.766 152.444H327.866ZM329.854 164.764V160.256L316.778 163.532V164.764C316.778 165.856 317.674 166.752 318.766 166.752H327.866C328.958 166.752 329.854 165.856 329.854 164.764ZM342.682 152.444H351.866V155.72H342.682C340.974 155.72 339.602 157.092 339.602 158.8V170H336.354V158.8C336.354 155.3 339.182 152.444 342.682 152.444ZM363.331 156.756H357.199V164.26C357.199 165.632 358.319 166.752 359.691 166.752H363.331V170H359.691C356.527 170 353.951 167.452 353.951 164.26V150.4H357.199V153.48H363.331V156.756ZM385.287 157.764H382.011V157.512C382.011 156.532 381.199 155.72 380.219 155.72H370.727C369.747 155.72 368.935 156.532 368.935 157.512C368.935 158.464 369.691 159.22 370.615 159.304L380.527 159.92C383.187 160.088 385.287 162.3 385.287 164.96C385.287 167.76 382.991 170 380.219 170H370.727C367.955 170 365.687 167.76 365.687 164.96V164.708H368.935V164.96C368.935 165.94 369.747 166.752 370.727 166.752H380.219C381.199 166.752 382.011 165.94 382.011 164.96C382.011 164.008 381.283 163.224 380.331 163.168L370.419 162.552C367.759 162.384 365.687 160.172 365.687 157.512C365.687 154.712 367.955 152.444 370.727 152.444H380.219C383.019 152.444 385.287 154.712 385.287 157.512V157.764ZM20.56 206.896C20.532 206.98 20.532 207.036 20.532 207.12L20.56 214.288C20.56 217.452 18.012 220 14.848 220H6.7C4.292 220 2.136 218.46 1.324 216.22L4.32 214.904C4.572 215.968 5.552 216.752 6.7 216.752H14.848C16.22 216.752 17.312 215.66 17.312 214.288V212.16L16.752 212.384C15.968 212.692 15.184 212.86 14.344 212.86H7.204C3.76 212.86 0.988 210.06 0.988 206.644C0.988 203.2 3.76 200.4 7.204 200.4H14.344C17.788 200.4 20.588 203.2 20.588 206.644C20.588 206.728 20.56 206.812 20.56 206.896ZM14.344 209.612C15.968 209.612 17.312 208.268 17.312 206.644C17.312 205.02 15.968 203.676 14.344 203.676H7.204C5.58 203.676 4.236 205.02 4.236 206.644C4.236 208.268 5.58 209.612 7.204 209.612H14.344ZM27.1304 207.764H23.8824V204.488H27.1304V207.764ZM27.1304 215.94H23.8824V212.664H27.1304V215.94ZM44.8056 200.4C47.6896 200.4 50.0416 202.78 50.0696 205.664V214.764C50.0696 217.648 47.6896 220 44.8056 220H35.7056C32.8216 220 30.4696 217.648 30.4696 214.764V205.664C30.4696 202.78 32.8216 200.4 35.7056 200.4H44.8056ZM46.7936 214.764V205.664C46.7936 204.572 45.8976 203.676 44.8056 203.676H35.7056C34.6136 203.676 33.7176 204.572 33.7176 205.664V214.764C33.7176 215.856 34.6136 216.752 35.7056 216.752H44.8056C45.8976 216.752 46.7936 215.856 46.7936 214.764ZM68.1987 200.4C71.0827 200.4 73.4347 202.78 73.4627 205.664V214.764C73.4627 217.648 71.0827 220 68.1987 220H59.0987C56.2147 220 53.8627 217.648 53.8627 214.764V205.664C53.8627 202.78 56.2147 200.4 59.0987 200.4H68.1987ZM70.1867 214.764V205.664C70.1867 204.572 69.2907 203.676 68.1987 203.676H59.0987C58.0067 203.676 57.1107 204.572 57.1107 205.664V214.764C57.1107 215.856 58.0067 216.752 59.0987 216.752H68.1987C69.2907 216.752 70.1867 215.856 70.1867 214.764ZM120.751 200.4H140.351V203.676H132.175V220H128.899V203.676H120.751V200.4ZM160.739 211.656L144.387 213.7V214.764C144.387 215.856 145.283 216.752 146.375 216.752H155.475C156.567 216.752 157.463 215.856 157.463 214.764V214.708H160.739V214.764C160.739 217.648 158.359 220 155.475 220H146.375C143.491 220 141.139 217.648 141.139 214.764V207.708C141.139 204.796 143.491 202.444 146.375 202.444H155.475C158.359 202.444 160.739 204.796 160.739 207.708V211.656ZM144.387 207.708V210.396L157.463 208.772V207.708C157.463 206.616 156.567 205.72 155.475 205.72H146.375C145.283 205.72 144.387 206.616 144.387 207.708ZM177.964 202.444C180.848 202.444 183.228 204.796 183.228 207.708V214.764C183.228 217.648 180.848 220 177.964 220H168.864C165.98 220 163.628 217.648 163.628 214.764V210.984L179.896 206.896L179.476 206.42C179.084 205.972 178.552 205.72 177.964 205.72H168.864C167.772 205.72 166.876 206.616 166.876 207.708V207.764H163.628V207.708C163.628 204.796 165.98 202.444 168.864 202.444H177.964ZM179.952 214.764V210.256L166.876 213.532V214.764C166.876 215.856 167.772 216.752 168.864 216.752H177.964C179.056 216.752 179.952 215.856 179.952 214.764ZM184.668 203.816L186.964 201.492L191.248 205.776V220H187.972V207.12L184.668 203.816ZM206.396 202.444C209.308 202.444 211.66 204.796 211.66 207.708V220H208.384V207.708C208.384 206.616 207.488 205.72 206.396 205.72H203.428C202.336 205.72 201.44 206.616 201.44 207.708V220H198.164V207.708C198.164 206.616 197.296 205.72 196.204 205.72H191.248V202.444H196.204C197.408 202.444 198.584 202.892 199.536 203.704L199.816 203.928L200.068 203.704C201.048 202.892 202.196 202.444 203.428 202.444H206.396ZM244.547 210.2L244.771 210.48C245.723 211.544 246.255 212.888 246.255 214.288C246.255 217.452 243.679 220.028 240.515 220.028H226.655V200.428H240.515C243.679 200.428 246.255 202.976 246.255 206.14C246.255 207.54 245.723 208.884 244.771 209.948L244.547 210.2ZM240.515 216.752C241.887 216.752 242.979 215.66 242.979 214.288C242.979 212.944 241.887 211.852 240.515 211.852H229.903V216.752H240.515ZM240.515 208.576C241.887 208.576 242.979 207.484 242.979 206.14C242.979 204.768 241.887 203.676 240.515 203.676H229.903V208.576H240.515ZM265.738 202.444H269.014V214.764C269.014 217.648 266.634 220 263.75 220H254.65C251.766 220 249.414 217.648 249.414 214.764V202.444H252.662V214.764C252.662 215.856 253.558 216.752 254.65 216.752H263.75C264.842 216.752 265.738 215.856 265.738 214.764V202.444ZM275.559 220H272.311V205.524H275.559V220ZM275.559 202.668H272.311V200.4H275.559V202.668ZM282.308 220H279.06V200.4H282.308V220ZM301.584 200.4H304.86V220H294.024C289.18 220 285.26 216.08 285.26 211.236C285.26 206.392 289.18 202.444 294.024 202.444H301.584V200.4ZM301.584 216.752V205.72H294.024C290.972 205.72 288.508 208.184 288.508 211.236C288.508 214.26 290.972 216.752 294.024 216.752H301.584ZM311.614 220H308.366V205.524H311.614V220ZM311.614 202.668H308.366V200.4H311.614V202.668ZM331.102 202.444C333.986 202.444 336.338 204.796 336.338 207.708V220H333.062V207.708C333.062 206.616 332.166 205.72 331.102 205.72H320.014V202.444H331.102ZM313.434 203.76L315.73 201.436L320.014 205.72V220H316.738V207.064L313.434 203.76ZM359.975 201.436L362.299 203.76L358.995 207.064V212.72C358.995 215.632 356.615 217.984 353.731 217.984H344.631C341.747 217.984 339.395 215.632 339.395 212.72V207.708C339.395 204.796 341.747 202.444 344.631 202.444H355.691V205.72H344.631C343.539 205.72 342.643 206.616 342.643 207.708V212.72C342.643 213.812 343.539 214.708 344.631 214.708H353.731C354.823 214.708 355.719 213.812 355.719 212.72V205.72L359.975 201.436ZM355.719 222.604V220.504H358.995V222.604C358.995 225.516 356.615 227.868 353.731 227.868H344.631C341.747 227.868 339.395 225.516 339.395 222.604V220.504H342.643V222.604C342.643 223.724 343.539 224.592 344.631 224.592H353.731C354.823 224.592 355.719 223.696 355.719 222.604ZM394.904 207.764H391.656V206.42C391.656 204.908 390.424 203.676 388.912 203.676H381.324C379.812 203.676 378.58 204.908 378.58 206.42V208.576H386.756V211.852H378.58V214.008C378.58 215.52 379.812 216.752 381.324 216.752H388.912C390.424 216.752 391.656 215.52 391.656 214.008V212.664H394.904V214.008C394.904 217.312 392.216 220 388.912 220H381.324C378.02 220 375.332 217.312 375.332 214.008V206.42C375.332 203.116 378.02 200.4 381.324 200.4H388.912C392.216 200.4 394.904 203.116 394.904 206.42V207.764ZM396.535 202.444H399.727L407.035 220H403.815L396.535 202.444ZM414.315 202.444H417.535L410.227 220H407.035L414.315 202.444ZM438.464 211.656L422.112 213.7V214.764C422.112 215.856 423.008 216.752 424.1 216.752H433.2C434.292 216.752 435.188 215.856 435.188 214.764V214.708H438.464V214.764C438.464 217.648 436.084 220 433.2 220H424.1C421.216 220 418.864 217.648 418.864 214.764V207.708C418.864 204.796 421.216 202.444 424.1 202.444H433.2C436.084 202.444 438.464 204.796 438.464 207.708V211.656ZM422.112 207.708V210.396L435.188 208.772V207.708C435.188 206.616 434.292 205.72 433.2 205.72H424.1C423.008 205.72 422.112 206.616 422.112 207.708ZM457.516 202.444C460.4 202.444 462.752 204.796 462.752 207.708V220H459.476V207.708C459.476 206.616 458.58 205.72 457.516 205.72H446.428V202.444H457.516ZM439.848 203.76L442.144 201.436L446.428 205.72V220H443.152V207.064L439.848 203.76ZM475.581 206.756H469.449V214.26C469.449 215.632 470.569 216.752 471.941 216.752H475.581V220H471.941C468.777 220 466.201 217.452 466.201 214.26V200.4H469.449V203.48H475.581V206.756ZM497.536 207.764H494.26V207.512C494.26 206.532 493.448 205.72 492.468 205.72H482.976C481.996 205.72 481.184 206.532 481.184 207.512C481.184 208.464 481.94 209.22 482.864 209.304L492.776 209.92C495.436 210.088 497.536 212.3 497.536 214.96C497.536 217.76 495.24 220 492.468 220H482.976C480.204 220 477.936 217.76 477.936 214.96V214.708H481.184V214.96C481.184 215.94 481.996 216.752 482.976 216.752H492.468C493.448 216.752 494.26 215.94 494.26 214.96C494.26 214.008 493.532 213.224 492.58 213.168L482.668 212.552C480.008 212.384 477.936 210.172 477.936 207.512C477.936 204.712 480.204 202.444 482.976 202.444H492.468C495.268 202.444 497.536 204.712 497.536 207.512V207.764ZM0.876 250.4H6.168V270H2.892V253.676H0.876V250.4ZM26.2696 262.664H29.3216V265.94H26.2696V270H22.9936V265.94H9.74959V261.74L15.0136 250.4H18.6256L12.9136 262.664H22.9936V250.4H26.2696V262.664ZM35.5391 257.764H32.2911V254.488H35.5391V257.764ZM35.5391 265.94H32.2911V262.664H35.5391V265.94ZM58.2263 253.676H38.6543V250.4H58.2263V253.676ZM46.8023 261.852V258.464L58.2543 253.676V256.896L53.0463 259.024C53.8023 259.024 54.4183 259.108 55.0903 259.388C55.7343 259.64 56.3223 260.06 56.7983 260.564C57.7223 261.572 58.2543 262.944 58.2543 264.288C58.2543 267.452 55.6783 270 52.5143 270H44.3663C41.2023 270 38.6543 267.452 38.6543 264.288V263.672H41.9023V264.288C41.9023 265.66 42.9943 266.752 44.3663 266.752H52.5143C53.8863 266.752 54.9783 265.66 54.9783 264.288C54.9783 262.944 53.8863 261.852 52.5143 261.852H46.8023ZM76.334 250.4C79.218 250.4 81.57 252.78 81.598 255.664V264.764C81.598 267.648 79.218 270 76.334 270H67.234C64.35 270 61.998 267.648 61.998 264.764V255.664C61.998 252.78 64.35 250.4 67.234 250.4H76.334ZM78.322 264.764V255.664C78.322 254.572 77.426 253.676 76.334 253.676H67.234C66.142 253.676 65.246 254.572 65.246 255.664V264.764C65.246 265.856 66.142 266.752 67.234 266.752H76.334C77.426 266.752 78.322 265.856 78.322 264.764ZM146.919 250.4H150.195V270H146.919V261.852H133.843V270H130.595V250.4H133.843V258.576H146.919V250.4ZM167.928 252.444C170.812 252.444 173.192 254.796 173.192 257.708V264.764C173.192 267.648 170.812 270 167.928 270H158.828C155.944 270 153.592 267.648 153.592 264.764V260.984L169.86 256.896L169.44 256.42C169.048 255.972 168.516 255.72 167.928 255.72H158.828C157.736 255.72 156.84 256.616 156.84 257.708V257.764H153.592V257.708C153.592 254.796 155.944 252.444 158.828 252.444H167.928ZM169.916 264.764V260.256L156.84 263.532V264.764C156.84 265.856 157.736 266.752 158.828 266.752H167.928C169.02 266.752 169.916 265.856 169.916 264.764ZM195.905 257.764H192.629V257.708C192.629 256.616 191.733 255.72 190.641 255.72H181.541C180.449 255.72 179.553 256.616 179.553 257.708V264.764C179.553 265.856 180.449 266.752 181.541 266.752H190.641C191.733 266.752 192.629 265.856 192.629 264.764V264.708H195.905V264.764C195.905 267.648 193.525 270 190.641 270H181.541C178.657 270 176.305 267.648 176.305 264.764V257.708C176.305 254.796 178.657 252.444 181.541 252.444H190.641C193.525 252.444 195.905 254.796 195.905 257.708V257.764ZM219.157 252.444L211.289 263.504L218.597 270H213.697L202.161 259.78V270H198.913V250.4H202.161V255.412L208.825 261.32L215.153 252.444H219.157ZM239.765 261.656L223.413 263.7V264.764C223.413 265.856 224.309 266.752 225.401 266.752H234.501C235.593 266.752 236.489 265.856 236.489 264.764V264.708H239.765V264.764C239.765 267.648 237.385 270 234.501 270H225.401C222.517 270 220.165 267.648 220.165 264.764V257.708C220.165 254.796 222.517 252.444 225.401 252.444H234.501C237.385 252.444 239.765 254.796 239.765 257.708V261.656ZM223.413 257.708V260.396L236.489 258.772V257.708C236.489 256.616 235.593 255.72 234.501 255.72H225.401C224.309 255.72 223.413 256.616 223.413 257.708ZM249.205 252.444H258.389V255.72H249.205C247.497 255.72 246.125 257.092 246.125 258.8V270H242.877V258.8C242.877 255.3 245.705 252.444 249.205 252.444ZM288.358 250.4H291.634V270H288.358V261.852H275.282V270H272.034V250.4H275.282V258.576H288.358V250.4ZM309.368 252.444C312.252 252.444 314.632 254.796 314.632 257.708V264.764C314.632 267.648 312.252 270 309.368 270H300.268C297.384 270 295.032 267.648 295.032 264.764V260.984L311.3 256.896L310.88 256.42C310.488 255.972 309.956 255.72 309.368 255.72H300.268C299.176 255.72 298.28 256.616 298.28 257.708V257.764H295.032V257.708C295.032 254.796 297.384 252.444 300.268 252.444H309.368ZM311.356 264.764V260.256L298.28 263.532V264.764C298.28 265.856 299.176 266.752 300.268 266.752H309.368C310.46 266.752 311.356 265.856 311.356 264.764ZM333.74 252.444C336.624 252.444 338.976 254.796 338.976 257.708V270H335.7V257.708C335.7 256.616 334.804 255.72 333.74 255.72H322.652V252.444H333.74ZM316.072 253.76L318.368 251.436L322.652 255.72V270H319.376V257.064L316.072 253.76ZM362.613 251.436L364.937 253.76L361.633 257.064V262.72C361.633 265.632 359.253 267.984 356.369 267.984H347.269C344.385 267.984 342.033 265.632 342.033 262.72V257.708C342.033 254.796 344.385 252.444 347.269 252.444H358.329V255.72H347.269C346.177 255.72 345.281 256.616 345.281 257.708V262.72C345.281 263.812 346.177 264.708 347.269 264.708H356.369C357.461 264.708 358.357 263.812 358.357 262.72V255.72L362.613 251.436ZM358.357 272.604V270.504H361.633V272.604C361.633 275.516 359.253 277.868 356.369 277.868H347.269C344.385 277.868 342.033 275.516 342.033 272.604V270.504H345.281V272.604C345.281 273.724 346.177 274.592 347.269 274.592H356.369C357.461 274.592 358.357 273.696 358.357 272.604ZM380.753 252.444C383.637 252.444 386.017 254.796 386.017 257.708V264.764C386.017 267.648 383.637 270 380.753 270H371.653C368.769 270 366.417 267.648 366.417 264.764V257.708C366.417 254.796 368.769 252.444 371.653 252.444H380.753ZM382.741 264.764V257.708C382.741 256.616 381.845 255.72 380.753 255.72H371.653C370.561 255.72 369.665 256.616 369.665 257.708V264.764C369.665 265.856 370.561 266.752 371.653 266.752H380.753C381.845 266.752 382.741 265.856 382.741 264.764ZM405.618 252.444H408.894V264.764C408.894 267.648 406.514 270 403.63 270H394.53C391.646 270 389.294 267.648 389.294 264.764V252.444H392.542V264.764C392.542 265.856 393.438 266.752 394.53 266.752H403.63C404.722 266.752 405.618 265.856 405.618 264.764V252.444ZM421.684 256.756H415.552V264.26C415.552 265.632 416.672 266.752 418.044 266.752H421.684V270H418.044C414.88 270 412.304 267.452 412.304 264.26V250.4H415.552V253.48H421.684V256.756ZM0.876 300.4H6.168V320H2.892V303.676H0.876V300.4ZM23.3576 307.568C26.8016 307.568 29.5736 310.34 29.6016 313.784C29.6016 317.228 26.8016 320 23.3576 320H16.2176C12.7736 320 10.0016 317.228 10.0016 313.784C10.0016 313.7 10.0016 313.616 10.0016 313.532C10.0296 313.448 10.0296 313.392 10.0296 313.308V312.86H10.0016V306.14C10.0016 302.976 12.5496 300.4 15.7136 300.4H23.8616C26.2696 300.4 28.4256 301.968 29.2376 304.208L26.2416 305.524C25.9896 304.46 25.0096 303.676 23.8616 303.676H15.7136C14.3416 303.676 13.2496 304.768 13.2496 306.14V308.268L13.8096 308.044C14.5936 307.708 15.3776 307.568 16.2176 307.568H23.3576ZM23.3576 316.752C24.9816 316.752 26.3256 315.408 26.3256 313.784C26.3256 312.16 24.9816 310.816 23.3576 310.816H16.2176C14.5936 310.816 13.2496 312.16 13.2496 313.784C13.2496 315.408 14.5936 316.752 16.2176 316.752H23.3576ZM36.004 307.764H32.756V304.488H36.004V307.764ZM36.004 315.94H32.756V312.664H36.004V315.94ZM53.6792 300.4C56.5632 300.4 58.9152 302.78 58.9432 305.664V314.764C58.9432 317.648 56.5632 320 53.6792 320H44.5792C41.6952 320 39.3432 317.648 39.3432 314.764V305.664C39.3432 302.78 41.6952 300.4 44.5792 300.4H53.6792ZM55.6672 314.764V305.664C55.6672 304.572 54.7712 303.676 53.6792 303.676H44.5792C43.4872 303.676 42.5912 304.572 42.5912 305.664V314.764C42.5912 315.856 43.4872 316.752 44.5792 316.752H53.6792C54.7712 316.752 55.6672 315.856 55.6672 314.764ZM77.0723 300.4C79.9563 300.4 82.3083 302.78 82.3363 305.664V314.764C82.3363 317.648 79.9563 320 77.0723 320H67.9723C65.0883 320 62.7363 317.648 62.7363 314.764V305.664C62.7363 302.78 65.0883 300.4 67.9723 300.4H77.0723ZM79.0603 314.764V305.664C79.0603 304.572 78.1643 303.676 77.0723 303.676H67.9723C66.8803 303.676 65.9843 304.572 65.9843 305.664V314.764C65.9843 315.856 66.8803 316.752 67.9723 316.752H77.0723C78.1643 316.752 79.0603 315.856 79.0603 314.764ZM154.993 320H151.745V300.4H154.993V320ZM134.581 320H131.333V300.4H134.581V320ZM143.149 312.048L148.525 300.4H151.745L144.913 315.94H141.413L134.581 300.4H137.801L143.149 312.048ZM162.185 316.752H176.493V320H158.937V300.4H162.185V316.752ZM195.072 300.4H198.348V320H195.072V311.852H181.996V320H178.748V300.4H181.996V308.576H195.072V300.4ZM237.218 320H233.97V300.4H237.218V320ZM216.806 320H213.558V300.4H216.806V320ZM225.374 312.048L230.75 300.4H233.97L227.138 315.94H223.638L216.806 300.4H220.026L225.374 312.048ZM244.018 320H240.77V305.524H244.018V320ZM244.018 302.668H240.77V300.4H244.018V302.668ZM263.506 302.444C266.39 302.444 268.742 304.796 268.742 307.708V320H265.466V307.708C265.466 306.616 264.57 305.72 263.506 305.72H252.418V302.444H263.506ZM245.838 303.76L248.134 301.436L252.418 305.72V320H249.142V307.064L245.838 303.76ZM275.327 320H272.079V305.524H275.327V320ZM275.327 302.668H272.079V300.4H275.327V302.668ZM309.316 307.764H306.068V306.42C306.068 304.908 304.836 303.676 303.324 303.676H295.736C294.224 303.676 292.992 304.908 292.992 306.42V308.576H301.168V311.852H292.992V314.008C292.992 315.52 294.224 316.752 295.736 316.752H303.324C304.836 316.752 306.068 315.52 306.068 314.008V312.664H309.316V314.008C309.316 317.312 306.628 320 303.324 320H295.736C292.432 320 289.744 317.312 289.744 314.008V306.42C289.744 303.116 292.432 300.4 295.736 300.4H303.324C306.628 300.4 309.316 303.116 309.316 306.42V307.764ZM310.947 302.444H314.139L321.447 320H318.227L310.947 302.444ZM328.727 302.444H331.947L324.639 320H321.447L328.727 302.444ZM352.876 311.656L336.524 313.7V314.764C336.524 315.856 337.42 316.752 338.512 316.752H347.612C348.704 316.752 349.6 315.856 349.6 314.764V314.708H352.876V314.764C352.876 317.648 350.496 320 347.612 320H338.512C335.628 320 333.276 317.648 333.276 314.764V307.708C333.276 304.796 335.628 302.444 338.512 302.444H347.612C350.496 302.444 352.876 304.796 352.876 307.708V311.656ZM336.524 307.708V310.396L349.6 308.772V307.708C349.6 306.616 348.704 305.72 347.612 305.72H338.512C337.42 305.72 336.524 306.616 336.524 307.708ZM371.928 302.444C374.812 302.444 377.164 304.796 377.164 307.708V320H373.888V307.708C373.888 306.616 372.992 305.72 371.928 305.72H360.84V302.444H371.928ZM354.26 303.76L356.556 301.436L360.84 305.72V320H357.564V307.064L354.26 303.76ZM389.993 306.756H383.861V314.26C383.861 315.632 384.981 316.752 386.353 316.752H389.993V320H386.353C383.189 320 380.613 317.452 380.613 314.26V300.4H383.861V303.48H389.993V306.756ZM0.876 350.4H6.168V370H2.892V353.676H0.876V350.4ZM27.4176 359.976C28.7056 361.068 29.4616 362.664 29.4616 364.288C29.4616 367.452 26.8856 370 23.7216 370H15.5736C12.4096 370 9.86159 367.452 9.86159 364.288C9.86159 362.664 10.5896 361.068 11.8776 359.976L12.1576 359.724L11.9336 359.416C11.2336 358.464 10.8696 357.316 10.8696 356.14C10.8696 352.976 13.4456 350.4 16.5816 350.4H22.7136C25.8496 350.4 28.4256 352.976 28.4256 356.14C28.4256 357.316 28.0616 358.436 27.3616 359.416L27.1376 359.724L27.4176 359.976ZM16.5816 353.676C15.2376 353.676 14.1456 354.768 14.1456 356.14C14.1456 357.484 15.2376 358.576 16.5816 358.576H22.7136C24.0576 358.576 25.1496 357.484 25.1496 356.14C25.1496 354.768 24.0576 353.676 22.7136 353.676H16.5816ZM23.7216 366.752C25.0936 366.752 26.1856 365.66 26.1856 364.288C26.1856 362.944 25.0936 361.852 23.7216 361.852H15.5736C14.2016 361.852 13.1096 362.944 13.1096 364.288C13.1096 365.66 14.2016 366.752 15.5736 366.752H23.7216ZM35.8672 357.764H32.6192V354.488H35.8672V357.764ZM35.8672 365.94H32.6192V362.664H35.8672V365.94ZM53.5425 350.4C56.4265 350.4 58.7785 352.78 58.8065 355.664V364.764C58.8065 367.648 56.4265 370 53.5425 370H44.4425C41.5585 370 39.2065 367.648 39.2065 364.764V355.664C39.2065 352.78 41.5585 350.4 44.4425 350.4H53.5425ZM55.5305 364.764V355.664C55.5305 354.572 54.6345 353.676 53.5425 353.676H44.4425C43.3505 353.676 42.4545 354.572 42.4545 355.664V364.764C42.4545 365.856 43.3505 366.752 44.4425 366.752H53.5425C54.6345 366.752 55.5305 365.856 55.5305 364.764ZM76.9356 350.4C79.8196 350.4 82.1716 352.78 82.1996 355.664V364.764C82.1996 367.648 79.8196 370 76.9356 370H67.8356C64.9516 370 62.5996 367.648 62.5996 364.764V355.664C62.5996 352.78 64.9516 350.4 67.8356 350.4H76.9356ZM78.9236 364.764V355.664C78.9236 354.572 78.0276 353.676 76.9356 353.676H67.8356C66.7436 353.676 65.8476 354.572 65.8476 355.664V364.764C65.8476 365.856 66.7436 366.752 67.8356 366.752H76.9356C78.0276 366.752 78.9236 365.856 78.9236 364.764ZM154.856 370H151.608V350.4H154.856V370ZM134.444 370H131.196V350.4H134.444V370ZM141.276 354.488H144.776L151.608 370H148.388L143.012 358.38L137.664 370H134.444L141.276 354.488ZM172.716 352.444C175.6 352.444 177.98 354.796 177.98 357.708V364.764C177.98 367.648 175.6 370 172.716 370H163.616C160.732 370 158.38 367.648 158.38 364.764V357.708C158.38 354.796 160.732 352.444 163.616 352.444H172.716ZM174.704 364.764V357.708C174.704 356.616 173.808 355.72 172.716 355.72H163.616C162.524 355.72 161.628 356.616 161.628 357.708V364.764C161.628 365.856 162.524 366.752 163.616 366.752H172.716C173.808 366.752 174.704 365.856 174.704 364.764ZM187.53 352.444H196.714V355.72H187.53C185.822 355.72 184.45 357.092 184.45 358.8V370H181.202V358.8C181.202 355.3 184.03 352.444 187.53 352.444ZM219.267 352.444L211.399 363.504L218.707 370H213.807L202.271 359.78V370H199.023V350.4H202.271V355.412L208.935 361.32L215.263 352.444H219.267ZM239.841 357.764H236.565V357.512C236.565 356.532 235.753 355.72 234.773 355.72H225.281C224.301 355.72 223.489 356.532 223.489 357.512C223.489 358.464 224.245 359.22 225.169 359.304L235.081 359.92C237.741 360.088 239.841 362.3 239.841 364.96C239.841 367.76 237.545 370 234.773 370H225.281C222.509 370 220.241 367.76 220.241 364.96V364.708H223.489V364.96C223.489 365.94 224.301 366.752 225.281 366.752H234.773C235.753 366.752 236.565 365.94 236.565 364.96C236.565 364.008 235.837 363.224 234.885 363.168L224.973 362.552C222.313 362.384 220.241 360.172 220.241 357.512C220.241 354.712 222.509 352.444 225.281 352.444H234.773C237.573 352.444 239.841 354.712 239.841 357.512V357.764ZM253.882 352.444C258.726 352.444 262.674 356.392 262.674 361.236V370H259.398V361.236C259.398 358.184 256.934 355.72 253.882 355.72H246.322V370H243.074V350.4H246.322V352.444H253.882ZM280.029 352.444C282.913 352.444 285.293 354.796 285.293 357.708V364.764C285.293 367.648 282.913 370 280.029 370H270.929C268.045 370 265.693 367.648 265.693 364.764V357.708C265.693 354.796 268.045 352.444 270.929 352.444H280.029ZM282.017 364.764V357.708C282.017 356.616 281.121 355.72 280.029 355.72H270.929C269.837 355.72 268.941 356.616 268.941 357.708V364.764C268.941 365.856 269.837 366.752 270.929 366.752H280.029C281.121 366.752 282.017 365.856 282.017 364.764ZM299.575 352.444C304.419 352.444 308.367 356.392 308.367 361.236C308.367 366.08 304.419 370 299.575 370H292.015V374.088H288.767V352.444H299.575ZM299.575 366.752C302.627 366.752 305.091 364.26 305.091 361.236C305.091 358.184 302.627 355.72 299.575 355.72H292.015V366.752H299.575ZM0.876 400.4H6.168V420H2.892V403.676H0.876V400.4ZM29.4336 406.896C29.4056 406.98 29.4056 407.036 29.4056 407.12L29.4336 414.288C29.4336 417.452 26.8856 420 23.7216 420H15.5736C13.1656 420 11.0096 418.46 10.1976 416.22L13.1936 414.904C13.4456 415.968 14.4256 416.752 15.5736 416.752H23.7216C25.0936 416.752 26.1856 415.66 26.1856 414.288V412.16L25.6256 412.384C24.8416 412.692 24.0576 412.86 23.2176 412.86H16.0776C12.6336 412.86 9.86159 410.06 9.86159 406.644C9.86159 403.2 12.6336 400.4 16.0776 400.4H23.2176C26.6616 400.4 29.4616 403.2 29.4616 406.644C29.4616 406.728 29.4336 406.812 29.4336 406.896ZM23.2176 409.612C24.8416 409.612 26.1856 408.268 26.1856 406.644C26.1856 405.02 24.8416 403.676 23.2176 403.676H16.0776C14.4536 403.676 13.1096 405.02 13.1096 406.644C13.1096 408.268 14.4536 409.612 16.0776 409.612H23.2176ZM36.004 407.764H32.756V404.488H36.004V407.764ZM36.004 415.94H32.756V412.664H36.004V415.94ZM53.6792 400.4C56.5632 400.4 58.9152 402.78 58.9432 405.664V414.764C58.9432 417.648 56.5632 420 53.6792 420H44.5792C41.6952 420 39.3432 417.648 39.3432 414.764V405.664C39.3432 402.78 41.6952 400.4 44.5792 400.4H53.6792ZM55.6672 414.764V405.664C55.6672 404.572 54.7712 403.676 53.6792 403.676H44.5792C43.4872 403.676 42.5912 404.572 42.5912 405.664V414.764C42.5912 415.856 43.4872 416.752 44.5792 416.752H53.6792C54.7712 416.752 55.6672 415.856 55.6672 414.764ZM77.0723 400.4C79.9563 400.4 82.3083 402.78 82.3363 405.664V414.764C82.3363 417.648 79.9563 420 77.0723 420H67.9723C65.0883 420 62.7363 417.648 62.7363 414.764V405.664C62.7363 402.78 65.0883 400.4 67.9723 400.4H77.0723ZM79.0603 414.764V405.664C79.0603 404.572 78.1643 403.676 77.0723 403.676H67.9723C66.8803 403.676 65.9843 404.572 65.9843 405.664V414.764C65.9843 415.856 66.8803 416.752 67.9723 416.752H77.0723C78.1643 416.752 79.0603 415.856 79.0603 414.764ZM148.889 403.676H134.581V408.576H148.889V411.852H134.581V420H131.333V400.4H148.889V403.676ZM167.927 402.444H171.203V414.764C171.203 417.648 168.823 420 165.939 420H156.839C153.955 420 151.603 417.648 151.603 414.764V402.444H154.851V414.764C154.851 415.856 155.747 416.752 156.839 416.752H165.939C167.031 416.752 167.927 415.856 167.927 414.764V402.444ZM190.824 402.444C193.708 402.444 196.06 404.796 196.06 407.708V420H192.784V407.708C192.784 406.616 191.888 405.72 190.824 405.72H179.736V402.444H190.824ZM173.156 403.76L175.452 401.436L179.736 405.72V420H176.46V407.064L173.156 403.76ZM230.221 407.764H226.973V406.42C226.973 404.908 225.741 403.676 224.229 403.676H216.641C215.129 403.676 213.897 404.908 213.897 406.42V408.576H222.073V411.852H213.897V414.008C213.897 415.52 215.129 416.752 216.641 416.752H224.229C225.741 416.752 226.973 415.52 226.973 414.008V412.664H230.221V414.008C230.221 417.312 227.533 420 224.229 420H216.641C213.337 420 210.649 417.312 210.649 414.008V406.42C210.649 403.116 213.337 400.4 216.641 400.4H224.229C227.533 400.4 230.221 403.116 230.221 406.42V407.764ZM231.852 402.444H235.044L242.352 420H239.132L231.852 402.444ZM249.632 402.444H252.852L245.544 420H242.352L249.632 402.444ZM273.782 411.656L257.43 413.7V414.764C257.43 415.856 258.326 416.752 259.418 416.752H268.518C269.61 416.752 270.506 415.856 270.506 414.764V414.708H273.782V414.764C273.782 417.648 271.402 420 268.518 420H259.418C256.534 420 254.182 417.648 254.182 414.764V407.708C254.182 404.796 256.534 402.444 259.418 402.444H268.518C271.402 402.444 273.782 404.796 273.782 407.708V411.656ZM257.43 407.708V410.396L270.506 408.772V407.708C270.506 406.616 269.61 405.72 268.518 405.72H259.418C258.326 405.72 257.43 406.616 257.43 407.708ZM292.833 402.444C295.717 402.444 298.069 404.796 298.069 407.708V420H294.793V407.708C294.793 406.616 293.897 405.72 292.833 405.72H281.745V402.444H292.833ZM275.165 403.76L277.461 401.436L281.745 405.72V420H278.469V407.064L275.165 403.76ZM310.898 406.756H304.766V414.26C304.766 415.632 305.886 416.752 307.258 416.752H310.898V420H307.258C304.094 420 301.518 417.452 301.518 414.26V400.4H304.766V403.48H310.898V406.756ZM332.854 407.764H329.578V407.512C329.578 406.532 328.766 405.72 327.786 405.72H318.294C317.314 405.72 316.502 406.532 316.502 407.512C316.502 408.464 317.258 409.22 318.182 409.304L328.094 409.92C330.754 410.088 332.854 412.3 332.854 414.96C332.854 417.76 330.558 420 327.786 420H318.294C315.522 420 313.254 417.76 313.254 414.96V414.708H316.502V414.96C316.502 415.94 317.314 416.752 318.294 416.752H327.786C328.766 416.752 329.578 415.94 329.578 414.96C329.578 414.008 328.85 413.224 327.898 413.168L317.986 412.552C315.326 412.384 313.254 410.172 313.254 407.512C313.254 404.712 315.522 402.444 318.294 402.444H327.786C330.586 402.444 332.854 404.712 332.854 407.512V407.764Z" fill="#E7E7E7"/>
</svg>
