<svg width="245" height="34" viewBox="0 0 245 34" fill="none" xmlns="http://www.w3.org/2000/svg">
<g filter="url(#filter0_d_1417_2543)">
<path d="M28.985 5.4H4.485V0.499998H28.985V5.4ZM14.285 15.2V10.3L28.985 5.4V10.3L25.52 11.455C27.585 12.75 28.985 15.06 28.985 17.65C28.985 21.71 25.66 25 21.635 25H11.835C7.775 25 4.485 21.71 4.485 17.65V16.425H9.385V17.65C9.385 19.015 10.47 20.1 11.835 20.1H21.635C22.965 20.1 24.085 19.015 24.085 17.65C24.085 16.32 22.965 15.2 21.635 15.2H14.285ZM52.073 0.499998C55.783 0.499998 58.863 3.58 58.863 7.29V18.245C58.863 21.955 55.783 25 52.073 25H41.118C37.408 25 34.363 21.955 34.363 18.245V7.29C34.363 3.58 37.408 0.499998 41.118 0.499998H52.073ZM53.963 18.245V7.29C53.963 6.275 53.088 5.4 52.073 5.4H41.118C40.103 5.4 39.263 6.275 39.263 7.29V18.245C39.263 19.26 40.103 20.1 41.118 20.1H52.073C53.088 20.1 53.963 19.26 53.963 18.245ZM71.691 0.534998H76.836L68.681 25.035H63.536L71.691 0.534998ZM105.821 8.48C105.821 8.69 105.786 8.9 105.786 9.075H105.821V17.65C105.821 21.71 102.531 25 98.4709 25H88.6709C85.3459 25 82.5459 22.76 81.6709 19.715L86.2209 17.65C86.2209 19.015 87.3409 20.1 88.6709 20.1H98.4709C99.8359 20.1 100.921 19.015 100.921 17.65V15.83C100.011 16.215 98.9609 16.425 97.8759 16.425H89.3009C84.9259 16.425 81.3559 12.855 81.3559 8.48C81.3559 4.105 84.9259 0.499998 89.3009 0.499998H97.8759C102.251 0.499998 105.821 4.105 105.821 8.48ZM97.8759 11.525C99.5559 11.525 100.921 10.16 100.921 8.48C100.921 6.8 99.5559 5.435 97.8759 5.435H89.3009C87.6209 5.435 86.2559 6.8 86.2559 8.48C86.2559 10.16 87.6209 11.525 89.3009 11.525H97.8759ZM118.654 0.534998H123.799L115.644 25.035H110.499L118.654 0.534998ZM133.499 16.915C133.394 16.95 133.324 17.055 133.324 17.16V20.1H152.924V25H128.424V17.16C128.424 14.955 129.824 12.995 131.924 12.26L152.504 5.4H128.424V0.499998H148.024C150.684 0.499998 152.819 2.635 152.889 5.295H152.924V10.44L133.499 16.915ZM175.906 0.499998C179.616 0.499998 182.696 3.58 182.696 7.29V18.245C182.696 21.955 179.616 25 175.906 25H164.951C161.241 25 158.196 21.955 158.196 18.245V7.29C158.196 3.58 161.241 0.499998 164.951 0.499998H175.906ZM177.796 18.245V7.29C177.796 6.275 176.921 5.4 175.906 5.4H164.951C163.936 5.4 163.096 6.275 163.096 7.29V18.245C163.096 19.26 163.936 20.1 164.951 20.1H175.906C176.921 20.1 177.796 19.26 177.796 18.245ZM192.425 16.915C192.32 16.95 192.25 17.055 192.25 17.16V20.1H211.85V25H187.35V17.16C187.35 14.955 188.75 12.995 190.85 12.26L211.43 5.4H187.35V0.499998H206.95C209.61 0.499998 211.745 2.635 211.815 5.295H211.85V10.44L192.425 16.915ZM240.386 5.4H215.886V0.499998H240.386V5.4ZM225.686 15.2V10.3L240.386 5.4V10.3L236.921 11.455C238.986 12.75 240.386 15.06 240.386 17.65C240.386 21.71 237.061 25 233.036 25H223.236C219.176 25 215.886 21.71 215.886 17.65V16.425H220.786V17.65C220.786 19.015 221.871 20.1 223.236 20.1H233.036C234.366 20.1 235.486 19.015 235.486 17.65C235.486 16.32 234.366 15.2 233.036 15.2H225.686Z" fill="#CA40CD"/>
</g>
<defs>
<filter id="filter0_d_1417_2543" x="0.485352" y="0.5" width="243.901" height="32.5349" filterUnits="userSpaceOnUse" color-interpolation-filters="sRGB">
<feFlood flood-opacity="0" result="BackgroundImageFix"/>
<feColorMatrix in="SourceAlpha" type="matrix" values="0 0 0 0 0 0 0 0 0 0 0 0 0 0 0 0 0 0 127 0" result="hardAlpha"/>
<feOffset dy="4"/>
<feGaussianBlur stdDeviation="2"/>
<feComposite in2="hardAlpha" operator="out"/>
<feColorMatrix type="matrix" values="0 0 0 0 0 0 0 0 0 0 0 0 0 0 0 0 0 0 0.25 0"/>
<feBlend mode="normal" in2="BackgroundImageFix" result="effect1_dropShadow_1417_2543"/>
<feBlend mode="normal" in="SourceGraphic" in2="effect1_dropShadow_1417_2543" result="shape"/>
</filter>
</defs>
</svg>
