<svg width="548" height="20" viewBox="0 0 548 20" fill="none" xmlns="http://www.w3.org/2000/svg">
<path d="M0.876 0.399999H6.168V20H2.892V3.676H0.876V0.399999ZM27.9776 9.976C29.2656 11.068 30.0216 12.664 30.0216 14.288C30.0216 17.452 27.4456 20 24.2816 20H16.1336C12.9696 20 10.4216 17.452 10.4216 14.288C10.4216 12.664 11.1496 11.068 12.4376 9.976L12.7176 9.724L12.4936 9.416C11.7936 8.464 11.4296 7.316 11.4296 6.14C11.4296 2.976 14.0056 0.399999 17.1416 0.399999H23.2736C26.4096 0.399999 28.9856 2.976 28.9856 6.14C28.9856 7.316 28.6216 8.436 27.9216 9.416L27.6976 9.724L27.9776 9.976ZM17.1416 3.676C15.7976 3.676 14.7056 4.768 14.7056 6.14C14.7056 7.484 15.7976 8.576 17.1416 8.576H23.2736C24.6176 8.576 25.7096 7.484 25.7096 6.14C25.7096 4.768 24.6176 3.676 23.2736 3.676H17.1416ZM24.2816 16.752C25.6536 16.752 26.7456 15.66 26.7456 14.288C26.7456 12.944 25.6536 11.852 24.2816 11.852H16.1336C14.7616 11.852 13.6696 12.944 13.6696 14.288C13.6696 15.66 14.7616 16.752 16.1336 16.752H24.2816ZM36.9873 7.764H33.7393V4.488H36.9873V7.764ZM36.9873 15.94H33.7393V12.664H36.9873V15.94ZM55.2225 0.399999C58.1065 0.399999 60.4585 2.78 60.4865 5.664V14.764C60.4865 17.648 58.1065 20 55.2225 20H46.1225C43.2385 20 40.8865 17.648 40.8865 14.764V5.664C40.8865 2.78 43.2385 0.399999 46.1225 0.399999H55.2225ZM57.2105 14.764V5.664C57.2105 4.572 56.3145 3.676 55.2225 3.676H46.1225C45.0305 3.676 44.1345 4.572 44.1345 5.664V14.764C44.1345 15.856 45.0305 16.752 46.1225 16.752H55.2225C56.3145 16.752 57.2105 15.856 57.2105 14.764ZM79.1756 0.399999C82.0596 0.399999 84.4116 2.78 84.4396 5.664V14.764C84.4396 17.648 82.0596 20 79.1756 20H70.0756C67.1916 20 64.8396 17.648 64.8396 14.764V5.664C64.8396 2.78 67.1916 0.399999 70.0756 0.399999H79.1756ZM81.1636 14.764V5.664C81.1636 4.572 80.2676 3.676 79.1756 3.676H70.0756C68.9836 3.676 68.0876 4.572 68.0876 5.664V14.764C68.0876 15.856 68.9836 16.752 70.0756 16.752H79.1756C80.2676 16.752 81.1636 15.856 81.1636 14.764ZM148.056 20H144.808V0.399999H148.056V20ZM127.644 20H124.396V0.399999H127.644V20ZM134.476 4.488H137.976L144.808 20H141.588L136.212 8.38L130.864 20H127.644L134.476 4.488ZM155.808 20H152.56V0.399999H155.808V20ZM179.926 20H176.65V0.399999H179.926V20ZM163.574 20H160.326V0.399999H163.574V20ZM163.574 0.399999H166.794L176.65 20H173.43L163.574 0.399999ZM204.016 20H200.74V0.399999H204.016V20ZM187.664 20H184.416V0.399999H187.664V20ZM187.664 0.399999H190.884L200.74 20H197.52L187.664 0.399999ZM227.658 7.764H224.41V6.42C224.41 4.908 223.178 3.676 221.666 3.676H214.078C212.566 3.676 211.334 4.908 211.334 6.42V8.576H219.51V11.852H211.334V14.008C211.334 15.52 212.566 16.752 214.078 16.752H221.666C223.178 16.752 224.41 15.52 224.41 14.008V12.664H227.658V14.008C227.658 17.312 224.97 20 221.666 20H214.078C210.774 20 208.086 17.312 208.086 14.008V6.42C208.086 3.116 210.774 0.399999 214.078 0.399999H221.666C224.97 0.399999 227.658 3.116 227.658 6.42V7.764ZM251.156 7.148C251.156 10.088 249.224 12.664 246.396 13.56L245.92 13.7L249.084 20H245.444L242.364 13.896H234.804V20H231.556V0.399999H244.408C248.132 0.399999 251.156 3.424 251.156 7.148ZM244.408 10.62C246.312 10.62 247.88 9.052 247.88 7.148C247.88 5.244 246.312 3.676 244.408 3.676H234.804V10.62H244.408ZM278.6 0.399999L286.076 20H282.856L281.316 15.94H269.444L267.876 20H264.684L272.16 0.399999H275.38L270.704 12.664H280.056L275.38 0.399999H278.6ZM308.442 20H305.166V0.399999H308.442V20ZM292.09 20H288.842V0.399999H292.09V20ZM292.09 0.399999H295.31L305.166 20H301.946L292.09 0.399999ZM332.531 20H329.255V0.399999H332.531V20ZM316.179 20H312.931V0.399999H316.179V20ZM316.179 0.399999H319.399L329.255 20H326.035L316.179 0.399999ZM350.181 0.399999C353.485 0.399999 356.173 3.116 356.173 6.42V14.008C356.173 17.312 353.485 20 350.181 20H342.593C339.289 20 336.601 17.312 336.601 14.008V6.42C336.601 3.116 339.289 0.399999 342.593 0.399999H350.181ZM352.925 14.008V6.42C352.925 4.908 351.693 3.676 350.181 3.676H342.593C341.081 3.676 339.849 4.908 339.849 6.42V14.008C339.849 15.52 341.081 16.752 342.593 16.752H350.181C351.693 16.752 352.925 15.52 352.925 14.008ZM376.391 0.399999H379.639V14.008C379.639 17.312 376.951 20 373.647 20H366.059C362.755 20 360.067 17.312 360.067 14.008V0.399999H363.315V14.008C363.315 15.52 364.547 16.752 366.059 16.752H373.647C375.159 16.752 376.391 15.52 376.391 14.008V0.399999ZM403.543 20H400.267V0.399999H403.543V20ZM387.191 20H383.943V0.399999H387.191V20ZM387.191 0.399999H390.411L400.267 20H397.047L387.191 0.399999ZM427.213 7.764H423.937V6.42C423.937 4.908 422.705 3.676 421.193 3.676H413.605C412.093 3.676 410.861 4.908 410.861 6.42V14.008C410.861 15.52 412.093 16.752 413.605 16.752H421.193C422.705 16.752 423.937 15.52 423.937 14.008V12.664H427.213V14.008C427.213 17.312 424.497 20 421.193 20H413.605C410.301 20 407.613 17.312 407.613 14.008V6.42C407.613 3.116 410.301 0.399999 413.605 0.399999H421.193C424.497 0.399999 427.213 3.116 427.213 6.42V7.764ZM450.236 7.764H446.988V6.42C446.988 4.908 445.756 3.676 444.244 3.676H436.656C435.144 3.676 433.912 4.908 433.912 6.42V8.576H442.088V11.852H433.912V14.008C433.912 15.52 435.144 16.752 436.656 16.752H444.244C445.756 16.752 446.988 15.52 446.988 14.008V12.664H450.236V14.008C450.236 17.312 447.548 20 444.244 20H436.656C433.352 20 430.664 17.312 430.664 14.008V6.42C430.664 3.116 433.352 0.399999 436.656 0.399999H444.244C447.548 0.399999 450.236 3.116 450.236 6.42V7.764ZM477.795 20H474.547V0.399999H477.795V20ZM457.383 20H454.135V0.399999H457.383V20ZM465.951 12.048L471.327 0.399999H474.547L467.715 15.94H464.215L457.383 0.399999H460.603L465.951 12.048ZM501.451 7.764H498.203V6.42C498.203 4.908 496.971 3.676 495.459 3.676H487.871C486.359 3.676 485.127 4.908 485.127 6.42V8.576H493.303V11.852H485.127V14.008C485.127 15.52 486.359 16.752 487.871 16.752H495.459C496.971 16.752 498.203 15.52 498.203 14.008V12.664H501.451V14.008C501.451 17.312 498.763 20 495.459 20H487.871C484.567 20 481.879 17.312 481.879 14.008V6.42C481.879 3.116 484.567 0.399999 487.871 0.399999H495.459C498.763 0.399999 501.451 3.116 501.451 6.42V7.764ZM524.949 20H521.673V0.399999H524.949V20ZM508.597 20H505.349V0.399999H508.597V20ZM508.597 0.399999H511.817L521.673 20H518.453L508.597 0.399999ZM527.731 0.399999H547.331V3.676H539.155V20H535.879V3.676H527.731V0.399999Z" fill="#E7E7E7"/>
</svg>
