<svg width="236" height="26" viewBox="0 0 236 26" fill="none" xmlns="http://www.w3.org/2000/svg">
<path d="M5.70293 16.915C5.59793 16.95 5.52793 17.055 5.52793 17.16V20.1H25.1279V25H0.62793V17.16C0.62793 14.955 2.02793 12.995 4.12793 12.26L24.7079 5.4H0.62793V0.499998H20.2279C22.8879 0.499998 25.0229 2.635 25.0929 5.295H25.1279V10.44L5.70293 16.915ZM53.9039 8.48C53.9039 8.69 53.8689 8.9 53.8689 9.075H53.9039V17.65C53.9039 21.71 50.6139 25 46.5539 25H36.7539C33.4289 25 30.6289 22.76 29.7539 19.715L34.3039 17.65C34.3039 19.015 35.4239 20.1 36.7539 20.1H46.5539C47.9189 20.1 49.0039 19.015 49.0039 17.65V15.83C48.0939 16.215 47.0439 16.425 45.9589 16.425H37.3839C33.0089 16.425 29.4389 12.855 29.4389 8.48C29.4389 4.105 33.0089 0.499998 37.3839 0.499998H45.9589C50.3339 0.499998 53.9039 4.105 53.9039 8.48ZM45.9589 11.525C47.6389 11.525 49.0039 10.16 49.0039 8.48C49.0039 6.8 47.6389 5.435 45.9589 5.435H37.3839C35.7039 5.435 34.3389 6.8 34.3389 8.48C34.3389 10.16 35.7039 11.525 37.3839 11.525H45.9589ZM66.7369 0.534998H71.8819L63.7269 25.035H58.5819L66.7369 0.534998ZM100.867 8.48C100.867 8.69 100.832 8.9 100.832 9.075H100.867V17.65C100.867 21.71 97.5768 25 93.5168 25H83.7168C80.3918 25 77.5918 22.76 76.7168 19.715L81.2668 17.65C81.2668 19.015 82.3868 20.1 83.7168 20.1H93.5168C94.8818 20.1 95.9668 19.015 95.9668 17.65V15.83C95.0568 16.215 94.0068 16.425 92.9218 16.425H84.3468C79.9718 16.425 76.4018 12.855 76.4018 8.48C76.4018 4.105 79.9718 0.499998 84.3468 0.499998H92.9218C97.2968 0.499998 100.867 4.105 100.867 8.48ZM92.9218 11.525C94.6018 11.525 95.9668 10.16 95.9668 8.48C95.9668 6.8 94.6018 5.435 92.9218 5.435H84.3468C82.6668 5.435 81.3018 6.8 81.3018 8.48C81.3018 10.16 82.6668 11.525 84.3468 11.525H92.9218ZM113.7 0.534998H118.845L110.69 25.035H105.545L113.7 0.534998ZM128.545 16.915C128.44 16.95 128.37 17.055 128.37 17.16V20.1H147.97V25H123.47V17.16C123.47 14.955 124.87 12.995 126.97 12.26L147.55 5.4H123.47V0.499998H143.07C145.73 0.499998 147.865 2.635 147.935 5.295H147.97V10.44L128.545 16.915ZM170.952 0.499998C174.662 0.499998 177.742 3.58 177.742 7.29V18.245C177.742 21.955 174.662 25 170.952 25H159.997C156.287 25 153.242 21.955 153.242 18.245V7.29C153.242 3.58 156.287 0.499998 159.997 0.499998H170.952ZM172.842 18.245V7.29C172.842 6.275 171.967 5.4 170.952 5.4H159.997C158.982 5.4 158.142 6.275 158.142 7.29V18.245C158.142 19.26 158.982 20.1 159.997 20.1H170.952C171.967 20.1 172.842 19.26 172.842 18.245ZM187.471 16.915C187.366 16.95 187.296 17.055 187.296 17.16V20.1H206.896V25H182.396V17.16C182.396 14.955 183.796 12.995 185.896 12.26L206.476 5.4H182.396V0.499998H201.996C204.656 0.499998 206.791 2.635 206.861 5.295H206.896V10.44L187.471 16.915ZM235.432 5.4H210.932V0.499998H235.432V5.4ZM220.732 15.2V10.3L235.432 5.4V10.3L231.967 11.455C234.032 12.75 235.432 15.06 235.432 17.65C235.432 21.71 232.107 25 228.082 25H218.282C214.222 25 210.932 21.71 210.932 17.65V16.425H215.832V17.65C215.832 19.015 216.917 20.1 218.282 20.1H228.082C229.412 20.1 230.532 19.015 230.532 17.65C230.532 16.32 229.412 15.2 228.082 15.2H220.732Z" fill="#CA40CD"/>
</svg>
