<svg width="418" height="19" viewBox="0 0 418 19" fill="none" xmlns="http://www.w3.org/2000/svg">
<line y1="-1.5" x2="22" y2="-1.5" transform="matrix(-1 0 0 1 417.62 10.5664)" stroke="#06EBE5" stroke-width="3"/>
<line y1="-2.5" x2="46" y2="-2.5" transform="matrix(-1 0 0 1 412.62 5.56641)" stroke="#06EBE5" stroke-width="5"/>
<line y1="-1.5" x2="7" y2="-1.5" transform="matrix(-1 0 0 1 396.62 12.5664)" stroke="#06EBE5" stroke-width="3"/>
<line y1="-1.5" x2="14" y2="-1.5" transform="matrix(-1 0 0 1 384.62 13.5664)" stroke="#06EBE5" stroke-width="3"/>
<line y1="-1.5" x2="6" y2="-1.5" transform="matrix(0 1 1 0 402.62 11.5664)" stroke="#06EBE5" stroke-width="3"/>
<line y1="-1.5" x2="6" y2="-1.5" transform="matrix(0 1 1 0 408.62 11.5664)" stroke="#06EBE5" stroke-width="3"/>
<line y1="-1.5" x2="6" y2="-1.5" transform="matrix(0 1 1 0 414.62 11.5664)" stroke="#06EBE5" stroke-width="3"/>
<path d="M390.62 4.56641L385.924 8.56641L366.62 8.56641" stroke="#06EBE5" stroke-width="2"/>
<path d="M366.615 3.56662L188.615 4.58961L99.6211 4.58961L89.1211 13.0664" stroke="#06EBE5" stroke-width="2"/>
<path d="M271.621 8.56639L262.615 16.5664L84.6151 17.5894L14.6209 17.5894L1.00047 4.55511" stroke="#06EBE5" stroke-width="2"/>
<circle cx="2.5" cy="2.5" r="2.5" transform="matrix(-1 0 0 1 200.62 8.56641)" fill="black"/>
<circle cx="2.5" cy="2.5" r="2.5" transform="matrix(-1 0 0 1 190.62 8.56641)" fill="black"/>
<circle cx="2.5" cy="2.5" r="2.5" transform="matrix(-1 0 0 1 180.62 8.56641)" fill="black"/>
<circle cx="2.5" cy="2.5" r="2.5" transform="matrix(-1 0 0 1 170.62 8.56641)" fill="black"/>
<circle cx="2.5" cy="2.5" r="2.5" transform="matrix(-1 0 0 1 160.62 8.56641)" fill="black"/>
<path d="M256.62 10.5664H206.12" stroke="#06EBE5" stroke-width="2" stroke-linecap="round"/>
<path d="M150.62 10.5664H100.12" stroke="#06EBE5" stroke-width="2" stroke-linecap="round"/>
</svg>
