<svg width="529" height="470" viewBox="0 0 529 470" fill="none" xmlns="http://www.w3.org/2000/svg">
<path d="M15.4949 0.399999C18.3789 0.399999 20.7309 2.78 20.7589 5.664V14.764C20.7589 17.648 18.3789 20 15.4949 20H6.39493C3.51093 20 1.15893 17.648 1.15893 14.764V5.664C1.15893 2.78 3.51093 0.399999 6.39493 0.399999H15.4949ZM17.4829 14.764V5.664C17.4829 4.572 16.5869 3.676 15.4949 3.676H6.39493C5.30293 3.676 4.40693 4.572 4.40693 5.664V14.764C4.40693 15.856 5.30293 16.752 6.39493 16.752H15.4949C16.5869 16.752 17.4829 15.856 17.4829 14.764ZM38.8881 0.399999C41.7721 0.399999 44.1241 2.78 44.1521 5.664V14.764C44.1521 17.648 41.7721 20 38.8881 20H29.7881C26.9041 20 24.5521 17.648 24.5521 14.764V5.664C24.5521 2.78 26.9041 0.399999 29.7881 0.399999H38.8881ZM40.8761 14.764V5.664C40.8761 4.572 39.9801 3.676 38.8881 3.676H29.7881C28.6961 3.676 27.8001 4.572 27.8001 5.664V14.764C27.8001 15.856 28.6961 16.752 29.7881 16.752H38.8881C39.9801 16.752 40.8761 15.856 40.8761 14.764ZM50.7452 7.764H47.4972V4.488H50.7452V7.764ZM50.7452 15.94H47.4972V12.664H50.7452V15.94ZM68.4204 0.399999C71.3044 0.399999 73.6564 2.78 73.6844 5.664V14.764C73.6844 17.648 71.3044 20 68.4204 20H59.3204C56.4364 20 54.0844 17.648 54.0844 14.764V5.664C54.0844 2.78 56.4364 0.399999 59.3204 0.399999H68.4204ZM70.4084 14.764V5.664C70.4084 4.572 69.5124 3.676 68.4204 3.676H59.3204C58.2284 3.676 57.3324 4.572 57.3324 5.664V14.764C57.3324 15.856 58.2284 16.752 59.3204 16.752H68.4204C69.5124 16.752 70.4084 15.856 70.4084 14.764ZM91.8135 0.399999C94.6975 0.399999 97.0495 2.78 97.0775 5.664V14.764C97.0775 17.648 94.6975 20 91.8135 20H82.7135C79.8295 20 77.4775 17.648 77.4775 14.764V5.664C77.4775 2.78 79.8295 0.399999 82.7135 0.399999H91.8135ZM93.8015 14.764V5.664C93.8015 4.572 92.9055 3.676 91.8135 3.676H82.7135C81.6215 3.676 80.7255 4.572 80.7255 5.664V14.764C80.7255 15.856 81.6215 16.752 82.7135 16.752H91.8135C92.9055 16.752 93.8015 15.856 93.8015 14.764ZM151.118 0.399999H154.394V20H151.118V11.852H138.042V20H134.794V0.399999H138.042V8.576H151.118V0.399999ZM172.128 2.444C175.012 2.444 177.392 4.796 177.392 7.708V14.764C177.392 17.648 175.012 20 172.128 20H163.028C160.144 20 157.792 17.648 157.792 14.764V10.984L174.06 6.896L173.64 6.42C173.248 5.972 172.716 5.72 172.128 5.72H163.028C161.936 5.72 161.04 6.616 161.04 7.708V7.764H157.792V7.708C157.792 4.796 160.144 2.444 163.028 2.444H172.128ZM174.116 14.764V10.256L161.04 13.532V14.764C161.04 15.856 161.936 16.752 163.028 16.752H172.128C173.22 16.752 174.116 15.856 174.116 14.764ZM200.104 7.764H196.828V7.708C196.828 6.616 195.932 5.72 194.84 5.72H185.74C184.648 5.72 183.752 6.616 183.752 7.708V14.764C183.752 15.856 184.648 16.752 185.74 16.752H194.84C195.932 16.752 196.828 15.856 196.828 14.764V14.708H200.104V14.764C200.104 17.648 197.724 20 194.84 20H185.74C182.856 20 180.504 17.648 180.504 14.764V7.708C180.504 4.796 182.856 2.444 185.74 2.444H194.84C197.724 2.444 200.104 4.796 200.104 7.708V7.764ZM223.357 2.444L215.489 13.504L222.797 20H217.897L206.361 9.78V20H203.113V0.399999H206.361V5.412L213.025 11.32L219.353 2.444H223.357ZM243.965 11.656L227.613 13.7V14.764C227.613 15.856 228.509 16.752 229.601 16.752H238.701C239.793 16.752 240.689 15.856 240.689 14.764V14.708H243.965V14.764C243.965 17.648 241.585 20 238.701 20H229.601C226.717 20 224.365 17.648 224.365 14.764V7.708C224.365 4.796 226.717 2.444 229.601 2.444H238.701C241.585 2.444 243.965 4.796 243.965 7.708V11.656ZM227.613 7.708V10.396L240.689 8.772V7.708C240.689 6.616 239.793 5.72 238.701 5.72H229.601C228.509 5.72 227.613 6.616 227.613 7.708ZM253.405 2.444H262.589V5.72H253.405C251.697 5.72 250.325 7.092 250.325 8.8V20H247.077V8.8C247.077 5.3 249.905 2.444 253.405 2.444ZM292.558 0.399999H295.834V20H292.558V11.852H279.482V20H276.234V0.399999H279.482V8.576H292.558V0.399999ZM313.567 2.444C316.451 2.444 318.831 4.796 318.831 7.708V14.764C318.831 17.648 316.451 20 313.567 20H304.467C301.583 20 299.231 17.648 299.231 14.764V10.984L315.499 6.896L315.079 6.42C314.687 5.972 314.155 5.72 313.567 5.72H304.467C303.375 5.72 302.479 6.616 302.479 7.708V7.764H299.231V7.708C299.231 4.796 301.583 2.444 304.467 2.444H313.567ZM315.555 14.764V10.256L302.479 13.532V14.764C302.479 15.856 303.375 16.752 304.467 16.752H313.567C314.659 16.752 315.555 15.856 315.555 14.764ZM337.94 2.444C340.824 2.444 343.176 4.796 343.176 7.708V20H339.9V7.708C339.9 6.616 339.004 5.72 337.94 5.72H326.852V2.444H337.94ZM320.272 3.76L322.568 1.436L326.852 5.72V20H323.576V7.064L320.272 3.76ZM366.813 1.436L369.137 3.76L365.833 7.064V12.72C365.833 15.632 363.453 17.984 360.569 17.984H351.469C348.585 17.984 346.233 15.632 346.233 12.72V7.708C346.233 4.796 348.585 2.444 351.469 2.444H362.529V5.72H351.469C350.377 5.72 349.481 6.616 349.481 7.708V12.72C349.481 13.812 350.377 14.708 351.469 14.708H360.569C361.661 14.708 362.557 13.812 362.557 12.72V5.72L366.813 1.436ZM362.557 22.604V20.504H365.833V22.604C365.833 25.516 363.453 27.868 360.569 27.868H351.469C348.585 27.868 346.233 25.516 346.233 22.604V20.504H349.481V22.604C349.481 23.724 350.377 24.592 351.469 24.592H360.569C361.661 24.592 362.557 23.696 362.557 22.604ZM384.953 2.444C387.837 2.444 390.217 4.796 390.217 7.708V14.764C390.217 17.648 387.837 20 384.953 20H375.853C372.969 20 370.617 17.648 370.617 14.764V7.708C370.617 4.796 372.969 2.444 375.853 2.444H384.953ZM386.941 14.764V7.708C386.941 6.616 386.045 5.72 384.953 5.72H375.853C374.761 5.72 373.865 6.616 373.865 7.708V14.764C373.865 15.856 374.761 16.752 375.853 16.752H384.953C386.045 16.752 386.941 15.856 386.941 14.764ZM409.818 2.444H413.094V14.764C413.094 17.648 410.714 20 407.83 20H398.73C395.846 20 393.494 17.648 393.494 14.764V2.444H396.742V14.764C396.742 15.856 397.638 16.752 398.73 16.752H407.83C408.922 16.752 409.818 15.856 409.818 14.764V2.444ZM425.884 6.756H419.752V14.26C419.752 15.632 420.872 16.752 422.244 16.752H425.884V20H422.244C419.08 20 416.504 17.452 416.504 14.26V0.399999H419.752V3.48H425.884V6.756ZM0.87893 50.4H6.17093V70H2.89493V53.676H0.87893V50.4ZM24.3685 50.4C27.2525 50.4 29.6045 52.78 29.6325 55.664V64.764C29.6325 67.648 27.2525 70 24.3685 70H15.2685C12.3845 70 10.0325 67.648 10.0325 64.764V55.664C10.0325 52.78 12.3845 50.4 15.2685 50.4H24.3685ZM26.3565 64.764V55.664C26.3565 54.572 25.4605 53.676 24.3685 53.676H15.2685C14.1765 53.676 13.2805 54.572 13.2805 55.664V64.764C13.2805 65.856 14.1765 66.752 15.2685 66.752H24.3685C25.4605 66.752 26.3565 65.856 26.3565 64.764ZM36.2256 57.764H32.9776V54.488H36.2256V57.764ZM36.2256 65.94H32.9776V62.664H36.2256V65.94ZM53.9009 50.4C56.7849 50.4 59.1369 52.78 59.1649 55.664V64.764C59.1649 67.648 56.7849 70 53.9009 70H44.8009C41.9169 70 39.5649 67.648 39.5649 64.764V55.664C39.5649 52.78 41.9169 50.4 44.8009 50.4H53.9009ZM55.8889 64.764V55.664C55.8889 54.572 54.9929 53.676 53.9009 53.676H44.8009C43.7089 53.676 42.8129 54.572 42.8129 55.664V64.764C42.8129 65.856 43.7089 66.752 44.8009 66.752H53.9009C54.9929 66.752 55.8889 65.856 55.8889 64.764ZM77.294 50.4C80.178 50.4 82.53 52.78 82.558 55.664V64.764C82.558 67.648 80.178 70 77.294 70H68.194C65.31 70 62.958 67.648 62.958 64.764V55.664C62.958 52.78 65.31 50.4 68.194 50.4H77.294ZM79.282 64.764V55.664C79.282 54.572 78.386 53.676 77.294 53.676H68.194C67.102 53.676 66.206 54.572 66.206 55.664V64.764C66.206 65.856 67.102 66.752 68.194 66.752H77.294C78.386 66.752 79.282 65.856 79.282 64.764ZM166.494 70H163.246V50.4H166.494V70ZM146.082 70H142.834V50.4H146.082V70ZM152.914 54.488H156.414L163.246 70H160.026L154.65 58.38L149.302 70H146.082L152.914 54.488ZM184.354 52.444C187.238 52.444 189.618 54.796 189.618 57.708V64.764C189.618 67.648 187.238 70 184.354 70H175.254C172.37 70 170.018 67.648 170.018 64.764V57.708C170.018 54.796 172.37 52.444 175.254 52.444H184.354ZM186.342 64.764V57.708C186.342 56.616 185.446 55.72 184.354 55.72H175.254C174.162 55.72 173.266 56.616 173.266 57.708V64.764C173.266 65.856 174.162 66.752 175.254 66.752H184.354C185.446 66.752 186.342 65.856 186.342 64.764ZM199.168 52.444H208.352V55.72H199.168C197.46 55.72 196.088 57.092 196.088 58.8V70H192.84V58.8C192.84 55.3 195.668 52.444 199.168 52.444ZM230.905 52.444L223.037 63.504L230.345 70H225.445L213.909 59.78V70H210.661V50.4H213.909V55.412L220.573 61.32L226.901 52.444H230.905ZM251.479 57.764H248.203V57.512C248.203 56.532 247.391 55.72 246.411 55.72H236.919C235.939 55.72 235.127 56.532 235.127 57.512C235.127 58.464 235.883 59.22 236.807 59.304L246.719 59.92C249.379 60.088 251.479 62.3 251.479 64.96C251.479 67.76 249.183 70 246.411 70H236.919C234.147 70 231.879 67.76 231.879 64.96V64.708H235.127V64.96C235.127 65.94 235.939 66.752 236.919 66.752H246.411C247.391 66.752 248.203 65.94 248.203 64.96C248.203 64.008 247.475 63.224 246.523 63.168L236.611 62.552C233.951 62.384 231.879 60.172 231.879 57.512C231.879 54.712 234.147 52.444 236.919 52.444H246.411C249.211 52.444 251.479 54.712 251.479 57.512V57.764ZM265.521 52.444C270.365 52.444 274.313 56.392 274.313 61.236V70H271.037V61.236C271.037 58.184 268.573 55.72 265.521 55.72H257.961V70H254.713V50.4H257.961V52.444H265.521ZM291.668 52.444C294.552 52.444 296.932 54.796 296.932 57.708V64.764C296.932 67.648 294.552 70 291.668 70H282.568C279.684 70 277.332 67.648 277.332 64.764V57.708C277.332 54.796 279.684 52.444 282.568 52.444H291.668ZM293.656 64.764V57.708C293.656 56.616 292.76 55.72 291.668 55.72H282.568C281.476 55.72 280.58 56.616 280.58 57.708V64.764C280.58 65.856 281.476 66.752 282.568 66.752H291.668C292.76 66.752 293.656 65.856 293.656 64.764ZM311.213 52.444C316.057 52.444 320.005 56.392 320.005 61.236C320.005 66.08 316.057 70 311.213 70H303.653V74.088H300.405V52.444H311.213ZM311.213 66.752C314.265 66.752 316.729 64.26 316.729 61.236C316.729 58.184 314.265 55.72 311.213 55.72H303.653V66.752H311.213ZM0.87893 100.4H6.17093V120H2.89493V103.676H0.87893V100.4ZM13.6165 113.28C13.3645 113.364 13.1965 113.616 13.1965 113.896V116.752H29.5205V120H9.94852V113.896C9.94852 112.216 11.0125 110.732 12.6085 110.2L29.5485 103.676V107.12L13.6165 113.28ZM25.8525 100.4C27.7565 100.4 29.2965 101.828 29.4925 103.676H9.94852V100.4H25.8525ZM35.9796 107.764H32.7316V104.488H35.9796V107.764ZM35.9796 115.94H32.7316V112.664H35.9796V115.94ZM53.6548 100.4C56.5388 100.4 58.8908 102.78 58.9188 105.664V114.764C58.9188 117.648 56.5388 120 53.6548 120H44.5548C41.6708 120 39.3188 117.648 39.3188 114.764V105.664C39.3188 102.78 41.6708 100.4 44.5548 100.4H53.6548ZM55.6428 114.764V105.664C55.6428 104.572 54.7468 103.676 53.6548 103.676H44.5548C43.4628 103.676 42.5668 104.572 42.5668 105.664V114.764C42.5668 115.856 43.4628 116.752 44.5548 116.752H53.6548C54.7468 116.752 55.6428 115.856 55.6428 114.764ZM77.0479 100.4C79.9319 100.4 82.2839 102.78 82.3119 105.664V114.764C82.3119 117.648 79.9319 120 77.0479 120H67.9479C65.0639 120 62.7119 117.648 62.7119 114.764V105.664C62.7119 102.78 65.0639 100.4 67.9479 100.4H77.0479ZM79.0359 114.764V105.664C79.0359 104.572 78.1399 103.676 77.0479 103.676H67.9479C66.8559 103.676 65.9599 104.572 65.9599 105.664V114.764C65.9599 115.856 66.8559 116.752 67.9479 116.752H77.0479C78.1399 116.752 79.0359 115.856 79.0359 114.764ZM145.836 116.752H160.144V120H142.588V100.4H145.836V116.752ZM178.253 102.444H181.529V114.764C181.529 117.648 179.149 120 176.265 120H167.165C164.281 120 161.929 117.648 161.929 114.764V102.444H165.177V114.764C165.177 115.856 166.073 116.752 167.165 116.752H176.265C177.357 116.752 178.253 115.856 178.253 114.764V102.444ZM201.15 102.444C204.034 102.444 206.386 104.796 206.386 107.708V120H203.11V107.708C203.11 106.616 202.214 105.72 201.15 105.72H190.062V102.444H201.15ZM183.482 103.76L185.778 101.436L190.062 105.72V120H186.786V107.064L183.482 103.76ZM229.295 107.764H226.019V107.708C226.019 106.616 225.123 105.72 224.031 105.72H214.931C213.839 105.72 212.943 106.616 212.943 107.708V114.764C212.943 115.856 213.839 116.752 214.931 116.752H224.031C225.123 116.752 226.019 115.856 226.019 114.764V114.708H229.295V114.764C229.295 117.648 226.915 120 224.031 120H214.931C212.047 120 209.695 117.648 209.695 114.764V107.708C209.695 104.796 212.047 102.444 214.931 102.444H224.031C226.915 102.444 229.295 104.796 229.295 107.708V107.764ZM243.112 102.444C247.956 102.444 251.904 106.392 251.904 111.236V120H248.628V111.236C248.628 108.184 246.164 105.72 243.112 105.72H235.552V120H232.304V100.4H235.552V102.444H243.112ZM0.87893 150.4H6.17093V170H2.89493V153.676H0.87893V150.4ZM13.6165 163.28C13.3645 163.364 13.1965 163.616 13.1965 163.896V166.752H29.5205V170H9.94852V163.896C9.94852 162.216 11.0125 160.732 12.6085 160.2L29.5485 153.676V157.12L13.6165 163.28ZM25.8525 150.4C27.7565 150.4 29.2965 151.828 29.4925 153.676H9.94852V150.4H25.8525ZM35.9796 157.764H32.7316V154.488H35.9796V157.764ZM35.9796 165.94H32.7316V162.664H35.9796V165.94ZM53.6548 150.4C56.5388 150.4 58.8908 152.78 58.9188 155.664V164.764C58.9188 167.648 56.5388 170 53.6548 170H44.5548C41.6708 170 39.3188 167.648 39.3188 164.764V155.664C39.3188 152.78 41.6708 150.4 44.5548 150.4H53.6548ZM55.6428 164.764V155.664C55.6428 154.572 54.7468 153.676 53.6548 153.676H44.5548C43.4628 153.676 42.5668 154.572 42.5668 155.664V164.764C42.5668 165.856 43.4628 166.752 44.5548 166.752H53.6548C54.7468 166.752 55.6428 165.856 55.6428 164.764ZM77.0479 150.4C79.9319 150.4 82.2839 152.78 82.3119 155.664V164.764C82.3119 167.648 79.9319 170 77.0479 170H67.9479C65.0639 170 62.7119 167.648 62.7119 164.764V155.664C62.7119 152.78 65.0639 150.4 67.9479 150.4H77.0479ZM79.0359 164.764V155.664C79.0359 154.572 78.1399 153.676 77.0479 153.676H67.9479C66.8559 153.676 65.9599 154.572 65.9599 155.664V164.764C65.9599 165.856 66.8559 166.752 67.9479 166.752H77.0479C78.1399 166.752 79.0359 165.856 79.0359 164.764ZM160.144 153.676H145.836V158.576H160.144V161.852H145.836V170H142.588V150.4H160.144V153.676ZM179.182 152.444H182.458V164.764C182.458 167.648 180.078 170 177.194 170H168.094C165.21 170 162.858 167.648 162.858 164.764V152.444H166.106V164.764C166.106 165.856 167.002 166.752 168.094 166.752H177.194C178.286 166.752 179.182 165.856 179.182 164.764V152.444ZM202.08 152.444C204.964 152.444 207.316 154.796 207.316 157.708V170H204.04V157.708C204.04 156.616 203.144 155.72 202.08 155.72H190.992V152.444H202.08ZM184.412 153.76L186.708 151.436L190.992 155.72V170H187.716V157.064L184.412 153.76ZM241.477 157.764H238.229V156.42C238.229 154.908 236.997 153.676 235.485 153.676H227.897C226.385 153.676 225.153 154.908 225.153 156.42V158.576H233.329V161.852H225.153V164.008C225.153 165.52 226.385 166.752 227.897 166.752H235.485C236.997 166.752 238.229 165.52 238.229 164.008V162.664H241.477V164.008C241.477 167.312 238.789 170 235.485 170H227.897C224.593 170 221.905 167.312 221.905 164.008V156.42C221.905 153.116 224.593 150.4 227.897 150.4H235.485C238.789 150.4 241.477 153.116 241.477 156.42V157.764ZM243.108 152.444H246.3L253.608 170H250.388L243.108 152.444ZM260.888 152.444H264.108L256.8 170H253.608L260.888 152.444ZM285.037 161.656L268.685 163.7V164.764C268.685 165.856 269.581 166.752 270.673 166.752H279.773C280.865 166.752 281.761 165.856 281.761 164.764V164.708H285.037V164.764C285.037 167.648 282.657 170 279.773 170H270.673C267.789 170 265.437 167.648 265.437 164.764V157.708C265.437 154.796 267.789 152.444 270.673 152.444H279.773C282.657 152.444 285.037 154.796 285.037 157.708V161.656ZM268.685 157.708V160.396L281.761 158.772V157.708C281.761 156.616 280.865 155.72 279.773 155.72H270.673C269.581 155.72 268.685 156.616 268.685 157.708ZM304.089 152.444C306.973 152.444 309.325 154.796 309.325 157.708V170H306.049V157.708C306.049 156.616 305.153 155.72 304.089 155.72H293.001V152.444H304.089ZM286.421 153.76L288.717 151.436L293.001 155.72V170H289.725V157.064L286.421 153.76ZM322.154 156.756H316.022V164.26C316.022 165.632 317.142 166.752 318.514 166.752H322.154V170H318.514C315.35 170 312.774 167.452 312.774 164.26V150.4H316.022V153.48H322.154V156.756ZM0.87893 200.4H6.17093V220H2.89493V203.676H0.87893V200.4ZM27.4205 209.976C28.7085 211.068 29.4645 212.664 29.4645 214.288C29.4645 217.452 26.8885 220 23.7245 220H15.5765C12.4125 220 9.86452 217.452 9.86452 214.288C9.86452 212.664 10.5925 211.068 11.8805 209.976L12.1605 209.724L11.9365 209.416C11.2365 208.464 10.8725 207.316 10.8725 206.14C10.8725 202.976 13.4485 200.4 16.5845 200.4H22.7165C25.8525 200.4 28.4285 202.976 28.4285 206.14C28.4285 207.316 28.0645 208.436 27.3645 209.416L27.1405 209.724L27.4205 209.976ZM16.5845 203.676C15.2405 203.676 14.1485 204.768 14.1485 206.14C14.1485 207.484 15.2405 208.576 16.5845 208.576H22.7165C24.0605 208.576 25.1525 207.484 25.1525 206.14C25.1525 204.768 24.0605 203.676 22.7165 203.676H16.5845ZM23.7245 216.752C25.0965 216.752 26.1885 215.66 26.1885 214.288C26.1885 212.944 25.0965 211.852 23.7245 211.852H15.5765C14.2045 211.852 13.1125 212.944 13.1125 214.288C13.1125 215.66 14.2045 216.752 15.5765 216.752H23.7245ZM35.8702 207.764H32.6222V204.488H35.8702V207.764ZM35.8702 215.94H32.6222V212.664H35.8702V215.94ZM53.5454 200.4C56.4294 200.4 58.7814 202.78 58.8094 205.664V214.764C58.8094 217.648 56.4294 220 53.5454 220H44.4454C41.5614 220 39.2094 217.648 39.2094 214.764V205.664C39.2094 202.78 41.5614 200.4 44.4454 200.4H53.5454ZM55.5334 214.764V205.664C55.5334 204.572 54.6374 203.676 53.5454 203.676H44.4454C43.3534 203.676 42.4574 204.572 42.4574 205.664V214.764C42.4574 215.856 43.3534 216.752 44.4454 216.752H53.5454C54.6374 216.752 55.5334 215.856 55.5334 214.764ZM76.9385 200.4C79.8225 200.4 82.1745 202.78 82.2025 205.664V214.764C82.2025 217.648 79.8225 220 76.9385 220H67.8385C64.9545 220 62.6025 217.648 62.6025 214.764V205.664C62.6025 202.78 64.9545 200.4 67.8385 200.4H76.9385ZM78.9265 214.764V205.664C78.9265 204.572 78.0305 203.676 76.9385 203.676H67.8385C66.7465 203.676 65.8505 204.572 65.8505 205.664V214.764C65.8505 215.856 66.7465 216.752 67.8385 216.752H76.9385C78.0305 216.752 78.9265 215.856 78.9265 214.764ZM145.727 220H142.479V200.4H145.727V220ZM165.616 202.444C168.5 202.444 170.852 204.796 170.852 207.708V220H167.576V207.708C167.576 206.616 166.68 205.72 165.616 205.72H154.528V202.444H165.616ZM147.948 203.76L150.244 201.436L154.528 205.72V220H151.252V207.064L147.948 203.76ZM177.438 220H174.19V205.524H177.438V220ZM177.438 202.668H174.19V200.4H177.438V202.668ZM190.094 206.756H183.962V214.26C183.962 215.632 185.082 216.752 186.454 216.752H190.094V220H186.454C183.29 220 180.714 217.452 180.714 214.26V200.4H183.962V203.48H190.094V206.756ZM195.978 220H192.73V205.524H195.978V220ZM195.978 202.668H192.73V200.4H195.978V202.668ZM213.338 202.444C216.222 202.444 218.602 204.796 218.602 207.708V214.764C218.602 217.648 216.222 220 213.338 220H204.238C201.354 220 199.002 217.648 199.002 214.764V210.984L215.27 206.896L214.85 206.42C214.458 205.972 213.926 205.72 213.338 205.72H204.238C203.146 205.72 202.25 206.616 202.25 207.708V207.764H199.002V207.708C199.002 204.796 201.354 202.444 204.238 202.444H213.338ZM215.326 214.764V210.256L202.25 213.532V214.764C202.25 215.856 203.146 216.752 204.238 216.752H213.338C214.43 216.752 215.326 215.856 215.326 214.764ZM225.326 220H222.078V200.4H225.326V220ZM253.643 208.576C256.807 208.576 259.383 211.152 259.383 214.288C259.383 217.452 256.807 220 253.643 220H245.495C242.471 220 240.007 217.676 239.783 214.708H243.059C243.255 215.856 244.263 216.752 245.495 216.752H253.643C255.015 216.752 256.107 215.66 256.107 214.288C256.107 212.944 255.015 211.852 253.643 211.852H245.495C242.331 211.852 239.783 209.276 239.783 206.14C239.783 202.976 242.331 200.4 245.495 200.4H253.643C256.667 200.4 259.131 202.752 259.355 205.72H256.079C255.883 204.572 254.875 203.676 253.643 203.676H245.495C244.123 203.676 243.031 204.768 243.031 206.14C243.031 207.484 244.123 208.576 245.495 208.576H253.643ZM278.663 202.444H281.939V214.764C281.939 217.648 279.559 220 276.675 220H267.575C264.691 220 262.339 217.648 262.339 214.764V202.444H265.587V214.764C265.587 215.856 266.483 216.752 267.575 216.752H276.675C277.767 216.752 278.663 215.856 278.663 214.764V202.444ZM296.381 202.444C301.225 202.444 305.145 206.392 305.173 211.236C305.173 216.08 301.225 220 296.381 220H285.573V200.4H288.821V202.444H296.381ZM296.381 216.752C299.405 216.752 301.897 214.26 301.897 211.236C301.897 208.184 299.433 205.72 296.381 205.72H288.821V216.752H296.381ZM305.454 203.816L307.75 201.492L312.034 205.776V220H308.758V207.12L305.454 203.816ZM327.182 202.444C330.094 202.444 332.446 204.796 332.446 207.708V220H329.17V207.708C329.17 206.616 328.274 205.72 327.182 205.72H324.214C323.122 205.72 322.226 206.616 322.226 207.708V220H318.95V207.708C318.95 206.616 318.082 205.72 316.99 205.72H312.034V202.444H316.99C318.194 202.444 319.37 202.892 320.322 203.704L320.602 203.928L320.854 203.704C321.834 202.892 322.982 202.444 324.214 202.444H327.182ZM339.017 220H335.769V205.524H339.017V220ZM339.017 202.668H335.769V200.4H339.017V202.668ZM361.502 207.764H358.226V207.512C358.226 206.532 357.414 205.72 356.434 205.72H346.942C345.962 205.72 345.15 206.532 345.15 207.512C345.15 208.464 345.906 209.22 346.83 209.304L356.742 209.92C359.402 210.088 361.502 212.3 361.502 214.96C361.502 217.76 359.206 220 356.434 220H346.942C344.17 220 341.902 217.76 341.902 214.96V214.708H345.15V214.96C345.15 215.94 345.962 216.752 346.942 216.752H356.434C357.414 216.752 358.226 215.94 358.226 214.96C358.226 214.008 357.498 213.224 356.546 213.168L346.634 212.552C343.974 212.384 341.902 210.172 341.902 207.512C341.902 204.712 344.17 202.444 346.942 202.444H356.434C359.234 202.444 361.502 204.712 361.502 207.512V207.764ZM383.719 207.764H380.443V207.512C380.443 206.532 379.631 205.72 378.651 205.72H369.159C368.179 205.72 367.367 206.532 367.367 207.512C367.367 208.464 368.123 209.22 369.047 209.304L378.959 209.92C381.619 210.088 383.719 212.3 383.719 214.96C383.719 217.76 381.423 220 378.651 220H369.159C366.387 220 364.119 217.76 364.119 214.96V214.708H367.367V214.96C367.367 215.94 368.179 216.752 369.159 216.752H378.651C379.631 216.752 380.443 215.94 380.443 214.96C380.443 214.008 379.715 213.224 378.763 213.168L368.851 212.552C366.191 212.384 364.119 210.172 364.119 207.512C364.119 204.712 366.387 202.444 369.159 202.444H378.651C381.451 202.444 383.719 204.712 383.719 207.512V207.764ZM389.865 220H386.617V205.524H389.865V220ZM389.865 202.668H386.617V200.4H389.865V202.668ZM407.337 202.444C410.221 202.444 412.601 204.796 412.601 207.708V214.764C412.601 217.648 410.221 220 407.337 220H398.237C395.353 220 393.001 217.648 393.001 214.764V207.708C393.001 204.796 395.353 202.444 398.237 202.444H407.337ZM409.325 214.764V207.708C409.325 206.616 408.429 205.72 407.337 205.72H398.237C397.145 205.72 396.249 206.616 396.249 207.708V214.764C396.249 215.856 397.145 216.752 398.237 216.752H407.337C408.429 216.752 409.325 215.856 409.325 214.764ZM431.707 202.444C434.591 202.444 436.943 204.796 436.943 207.708V220H433.667V207.708C433.667 206.616 432.771 205.72 431.707 205.72H420.619V202.444H431.707ZM414.039 203.76L416.335 201.436L420.619 205.72V220H417.343V207.064L414.039 203.76ZM465.532 200.4C468.836 200.4 471.524 203.116 471.524 206.42V214.008C471.524 217.312 468.836 220 465.532 220H451.952V200.4H465.532ZM468.276 214.008V206.42C468.276 204.908 467.044 203.676 465.532 203.676H455.2V216.752H465.532C467.044 216.752 468.276 215.52 468.276 214.008ZM488.876 202.444C491.76 202.444 494.14 204.796 494.14 207.708V214.764C494.14 217.648 491.76 220 488.876 220H479.776C476.892 220 474.54 217.648 474.54 214.764V210.984L490.808 206.896L490.388 206.42C489.996 205.972 489.464 205.72 488.876 205.72H479.776C478.684 205.72 477.788 206.616 477.788 207.708V207.764H474.54V207.708C474.54 204.796 476.892 202.444 479.776 202.444H488.876ZM490.864 214.764V210.256L477.788 213.532V214.764C477.788 215.856 478.684 216.752 479.776 216.752H488.876C489.968 216.752 490.864 215.856 490.864 214.764ZM506.772 206.756H500.64V214.26C500.64 215.632 501.76 216.752 503.132 216.752H506.772V220H503.132C499.968 220 497.392 217.452 497.392 214.26V200.4H500.64V203.48H506.772V206.756ZM528.979 211.656L512.627 213.7V214.764C512.627 215.856 513.523 216.752 514.615 216.752H523.715C524.807 216.752 525.703 215.856 525.703 214.764V214.708H528.979V214.764C528.979 217.648 526.599 220 523.715 220H514.615C511.731 220 509.379 217.648 509.379 214.764V207.708C509.379 204.796 511.731 202.444 514.615 202.444H523.715C526.599 202.444 528.979 204.796 528.979 207.708V211.656ZM512.627 207.708V210.396L525.703 208.772V207.708C525.703 206.616 524.807 205.72 523.715 205.72H514.615C513.523 205.72 512.627 206.616 512.627 207.708ZM4.74293 263.28C4.49093 263.364 4.32293 263.616 4.32293 263.896V266.752H20.6469V270H1.07493V263.896C1.07493 262.216 2.13893 260.732 3.73493 260.2L20.6749 253.676V257.12L4.74293 263.28ZM16.9789 250.4C18.8829 250.4 20.4229 251.828 20.6189 253.676H1.07493V250.4H16.9789ZM38.642 250.4C41.526 250.4 43.878 252.78 43.906 255.664V264.764C43.906 267.648 41.526 270 38.642 270H29.542C26.658 270 24.306 267.648 24.306 264.764V255.664C24.306 252.78 26.658 250.4 29.542 250.4H38.642ZM40.63 264.764V255.664C40.63 254.572 39.734 253.676 38.642 253.676H29.542C28.45 253.676 27.554 254.572 27.554 255.664V264.764C27.554 265.856 28.45 266.752 29.542 266.752H38.642C39.734 266.752 40.63 265.856 40.63 264.764ZM50.4991 257.764H47.2511V254.488H50.4991V257.764ZM50.4991 265.94H47.2511V262.664H50.4991V265.94ZM68.1743 250.4C71.0583 250.4 73.4103 252.78 73.4383 255.664V264.764C73.4383 267.648 71.0583 270 68.1743 270H59.0743C56.1903 270 53.8383 267.648 53.8383 264.764V255.664C53.8383 252.78 56.1903 250.4 59.0743 250.4H68.1743ZM70.1623 264.764V255.664C70.1623 254.572 69.2663 253.676 68.1743 253.676H59.0743C57.9823 253.676 57.0863 254.572 57.0863 255.664V264.764C57.0863 265.856 57.9823 266.752 59.0743 266.752H68.1743C69.2663 266.752 70.1623 265.856 70.1623 264.764ZM91.5674 250.4C94.4514 250.4 96.8034 252.78 96.8314 255.664V264.764C96.8314 267.648 94.4514 270 91.5674 270H82.4674C79.5834 270 77.2314 267.648 77.2314 264.764V255.664C77.2314 252.78 79.5834 250.4 82.4674 250.4H91.5674ZM93.5554 264.764V255.664C93.5554 254.572 92.6594 253.676 91.5674 253.676H82.4674C81.3754 253.676 80.4794 254.572 80.4794 255.664V264.764C80.4794 265.856 81.3754 266.752 82.4674 266.752H91.5674C92.6594 266.752 93.5554 265.856 93.5554 264.764ZM162.152 250.4H165.428V270H162.152V261.852H149.076V270H145.828V250.4H149.076V258.576H162.152V250.4ZM183.162 252.444C186.046 252.444 188.426 254.796 188.426 257.708V264.764C188.426 267.648 186.046 270 183.162 270H174.062C171.178 270 168.826 267.648 168.826 264.764V260.984L185.094 256.896L184.674 256.42C184.282 255.972 183.75 255.72 183.162 255.72H174.062C172.97 255.72 172.074 256.616 172.074 257.708V257.764H168.826V257.708C168.826 254.796 171.178 252.444 174.062 252.444H183.162ZM185.15 264.764V260.256L172.074 263.532V264.764C172.074 265.856 172.97 266.752 174.062 266.752H183.162C184.254 266.752 185.15 265.856 185.15 264.764ZM211.138 257.764H207.862V257.708C207.862 256.616 206.966 255.72 205.874 255.72H196.774C195.682 255.72 194.786 256.616 194.786 257.708V264.764C194.786 265.856 195.682 266.752 196.774 266.752H205.874C206.966 266.752 207.862 265.856 207.862 264.764V264.708H211.138V264.764C211.138 267.648 208.758 270 205.874 270H196.774C193.89 270 191.538 267.648 191.538 264.764V257.708C191.538 254.796 193.89 252.444 196.774 252.444H205.874C208.758 252.444 211.138 254.796 211.138 257.708V257.764ZM234.391 252.444L226.523 263.504L233.831 270H228.931L217.395 259.78V270H214.147V250.4H217.395V255.412L224.059 261.32L230.387 252.444H234.391ZM239.495 270H236.247V255.524H239.495V270ZM239.495 252.668H236.247V250.4H239.495V252.668ZM258.983 252.444C261.867 252.444 264.219 254.796 264.219 257.708V270H260.943V257.708C260.943 256.616 260.047 255.72 258.983 255.72H247.895V252.444H258.983ZM241.315 253.76L243.611 251.436L247.895 255.72V270H244.619V257.064L241.315 253.76ZM287.856 251.436L290.18 253.76L286.876 257.064V262.72C286.876 265.632 284.496 267.984 281.612 267.984H272.512C269.628 267.984 267.276 265.632 267.276 262.72V257.708C267.276 254.796 269.628 252.444 272.512 252.444H283.572V255.72H272.512C271.42 255.72 270.524 256.616 270.524 257.708V262.72C270.524 263.812 271.42 264.708 272.512 264.708H281.612C282.704 264.708 283.6 263.812 283.6 262.72V255.72L287.856 251.436ZM283.6 272.604V270.504H286.876V272.604C286.876 275.516 284.496 277.868 281.612 277.868H272.512C269.628 277.868 267.276 275.516 267.276 272.604V270.504H270.524V272.604C270.524 273.724 271.42 274.592 272.512 274.592H281.612C282.704 274.592 283.6 273.696 283.6 272.604ZM322.785 257.764H319.537V256.42C319.537 254.908 318.305 253.676 316.793 253.676H309.205C307.693 253.676 306.461 254.908 306.461 256.42V258.576H314.637V261.852H306.461V264.008C306.461 265.52 307.693 266.752 309.205 266.752H316.793C318.305 266.752 319.537 265.52 319.537 264.008V262.664H322.785V264.008C322.785 267.312 320.097 270 316.793 270H309.205C305.901 270 303.213 267.312 303.213 264.008V256.42C303.213 253.116 305.901 250.4 309.205 250.4H316.793C320.097 250.4 322.785 253.116 322.785 256.42V257.764ZM342.056 252.444C344.94 252.444 347.292 254.796 347.292 257.708V270H344.016V257.708C344.016 256.616 343.12 255.72 342.056 255.72H330.968V252.444H342.056ZM324.388 253.76L326.684 251.436L330.968 255.72V270H327.692V257.064L324.388 253.76ZM366.393 250.4H369.669V270H358.833C353.989 270 350.069 266.08 350.069 261.236C350.069 256.392 353.989 252.444 358.833 252.444H366.393V250.4ZM366.393 266.752V255.72H358.833C355.781 255.72 353.317 258.184 353.317 261.236C353.317 264.26 355.781 266.752 358.833 266.752H366.393ZM392.494 257.764H389.218V257.512C389.218 256.532 388.406 255.72 387.426 255.72H377.934C376.954 255.72 376.142 256.532 376.142 257.512C376.142 258.464 376.898 259.22 377.822 259.304L387.734 259.92C390.394 260.088 392.494 262.3 392.494 264.96C392.494 267.76 390.198 270 387.426 270H377.934C375.162 270 372.894 267.76 372.894 264.96V264.708H376.142V264.96C376.142 265.94 376.954 266.752 377.934 266.752H387.426C388.406 266.752 389.218 265.94 389.218 264.96C389.218 264.008 388.49 263.224 387.538 263.168L377.626 262.552C374.966 262.384 372.894 260.172 372.894 257.512C372.894 254.712 375.162 252.444 377.934 252.444H387.426C390.226 252.444 392.494 254.712 392.494 257.512V257.764ZM4.74293 313.28C4.49093 313.364 4.32293 313.616 4.32293 313.896V316.752H20.6469V320H1.07493V313.896C1.07493 312.216 2.13893 310.732 3.73493 310.2L20.6749 303.676V307.12L4.74293 313.28ZM16.9789 300.4C18.8829 300.4 20.4229 301.828 20.6189 303.676H1.07493V300.4H16.9789ZM38.642 300.4C41.526 300.4 43.878 302.78 43.906 305.664V314.764C43.906 317.648 41.526 320 38.642 320H29.542C26.658 320 24.306 317.648 24.306 314.764V305.664C24.306 302.78 26.658 300.4 29.542 300.4H38.642ZM40.63 314.764V305.664C40.63 304.572 39.734 303.676 38.642 303.676H29.542C28.45 303.676 27.554 304.572 27.554 305.664V314.764C27.554 315.856 28.45 316.752 29.542 316.752H38.642C39.734 316.752 40.63 315.856 40.63 314.764ZM50.4991 307.764H47.2511V304.488H50.4991V307.764ZM50.4991 315.94H47.2511V312.664H50.4991V315.94ZM68.1743 300.4C71.0583 300.4 73.4103 302.78 73.4383 305.664V314.764C73.4383 317.648 71.0583 320 68.1743 320H59.0743C56.1903 320 53.8383 317.648 53.8383 314.764V305.664C53.8383 302.78 56.1903 300.4 59.0743 300.4H68.1743ZM70.1623 314.764V305.664C70.1623 304.572 69.2663 303.676 68.1743 303.676H59.0743C57.9823 303.676 57.0863 304.572 57.0863 305.664V314.764C57.0863 315.856 57.9823 316.752 59.0743 316.752H68.1743C69.2663 316.752 70.1623 315.856 70.1623 314.764ZM91.5674 300.4C94.4514 300.4 96.8034 302.78 96.8314 305.664V314.764C96.8314 317.648 94.4514 320 91.5674 320H82.4674C79.5834 320 77.2314 317.648 77.2314 314.764V305.664C77.2314 302.78 79.5834 300.4 82.4674 300.4H91.5674ZM93.5554 314.764V305.664C93.5554 304.572 92.6594 303.676 91.5674 303.676H82.4674C81.3754 303.676 80.4794 304.572 80.4794 305.664V314.764C80.4794 315.856 81.3754 316.752 82.4674 316.752H91.5674C92.6594 316.752 93.5554 315.856 93.5554 314.764ZM165.008 307.764H161.732V306.42C161.732 304.908 160.5 303.676 158.988 303.676H151.4C149.888 303.676 148.656 304.908 148.656 306.42V314.008C148.656 315.52 149.888 316.752 151.4 316.752H158.988C160.5 316.752 161.732 315.52 161.732 314.008V312.664H165.008V314.008C165.008 317.312 162.292 320 158.988 320H151.4C148.096 320 145.408 317.312 145.408 314.008V306.42C145.408 303.116 148.096 300.4 151.4 300.4H158.988C162.292 300.4 165.008 303.116 165.008 306.42V307.764ZM171.511 320H168.263V300.4H171.511V320ZM189.331 302.444C192.215 302.444 194.595 304.796 194.595 307.708V314.764C194.595 317.648 192.215 320 189.331 320H180.231C177.347 320 174.995 317.648 174.995 314.764V307.708C174.995 304.796 177.347 302.444 180.231 302.444H189.331ZM191.319 314.764V307.708C191.319 306.616 190.423 305.72 189.331 305.72H180.231C179.139 305.72 178.243 306.616 178.243 307.708V314.764C178.243 315.856 179.139 316.752 180.231 316.752H189.331C190.423 316.752 191.319 315.856 191.319 314.764ZM217.052 307.764H213.776V307.512C213.776 306.532 212.964 305.72 211.984 305.72H202.492C201.512 305.72 200.7 306.532 200.7 307.512C200.7 308.464 201.456 309.22 202.38 309.304L212.292 309.92C214.952 310.088 217.052 312.3 217.052 314.96C217.052 317.76 214.756 320 211.984 320H202.492C199.72 320 197.452 317.76 197.452 314.96V314.708H200.7V314.96C200.7 315.94 201.512 316.752 202.492 316.752H211.984C212.964 316.752 213.776 315.94 213.776 314.96C213.776 314.008 213.048 313.224 212.096 313.168L202.184 312.552C199.524 312.384 197.452 310.172 197.452 307.512C197.452 304.712 199.72 302.444 202.492 302.444H211.984C214.784 302.444 217.052 304.712 217.052 307.512V307.764ZM223.198 320H219.95V305.524H223.198V320ZM223.198 302.668H219.95V300.4H223.198V302.668ZM242.686 302.444C245.57 302.444 247.922 304.796 247.922 307.708V320H244.646V307.708C244.646 306.616 243.75 305.72 242.686 305.72H231.598V302.444H242.686ZM225.018 303.76L227.314 301.436L231.598 305.72V320H228.322V307.064L225.018 303.76ZM271.56 301.436L273.884 303.76L270.58 307.064V312.72C270.58 315.632 268.2 317.984 265.316 317.984H256.216C253.332 317.984 250.98 315.632 250.98 312.72V307.708C250.98 304.796 253.332 302.444 256.216 302.444H267.276V305.72H256.216C255.124 305.72 254.228 306.616 254.228 307.708V312.72C254.228 313.812 255.124 314.708 256.216 314.708H265.316C266.408 314.708 267.304 313.812 267.304 312.72V305.72L271.56 301.436ZM267.304 322.604V320.504H270.58V322.604C270.58 325.516 268.2 327.868 265.316 327.868H256.216C253.332 327.868 250.98 325.516 250.98 322.604V320.504H254.228V322.604C254.228 323.724 255.124 324.592 256.216 324.592H265.316C266.408 324.592 267.304 323.696 267.304 322.604ZM306.516 307.764H303.24V306.42C303.24 304.908 302.008 303.676 300.496 303.676H292.908C291.396 303.676 290.164 304.908 290.164 306.42V314.008C290.164 315.52 291.396 316.752 292.908 316.752H300.496C302.008 316.752 303.24 315.52 303.24 314.008V312.664H306.516V314.008C306.516 317.312 303.8 320 300.496 320H292.908C289.604 320 286.916 317.312 286.916 314.008V306.42C286.916 303.116 289.604 300.4 292.908 300.4H300.496C303.8 300.4 306.516 303.116 306.516 306.42V307.764ZM329.007 311.656L312.655 313.7V314.764C312.655 315.856 313.551 316.752 314.643 316.752H323.743C324.835 316.752 325.731 315.856 325.731 314.764V314.708H329.007V314.764C329.007 317.648 326.627 320 323.743 320H314.643C311.759 320 309.407 317.648 309.407 314.764V307.708C309.407 304.796 311.759 302.444 314.643 302.444H323.743C326.627 302.444 329.007 304.796 329.007 307.708V311.656ZM312.655 307.708V310.396L325.731 308.772V307.708C325.731 306.616 324.835 305.72 323.743 305.72H314.643C313.551 305.72 312.655 306.616 312.655 307.708ZM338.447 302.444H347.631V305.72H338.447C336.739 305.72 335.367 307.092 335.367 308.8V320H332.119V308.8C332.119 305.3 334.947 302.444 338.447 302.444ZM369.012 311.656L352.66 313.7V314.764C352.66 315.856 353.556 316.752 354.648 316.752H363.748C364.84 316.752 365.736 315.856 365.736 314.764V314.708H369.012V314.764C369.012 317.648 366.632 320 363.748 320H354.648C351.764 320 349.412 317.648 349.412 314.764V307.708C349.412 304.796 351.764 302.444 354.648 302.444H363.748C366.632 302.444 369.012 304.796 369.012 307.708V311.656ZM352.66 307.708V310.396L365.736 308.772V307.708C365.736 306.616 364.84 305.72 363.748 305.72H354.648C353.556 305.72 352.66 306.616 352.66 307.708ZM370.395 303.816L372.691 301.492L376.975 305.776V320H373.699V307.12L370.395 303.816ZM392.123 302.444C395.035 302.444 397.387 304.796 397.387 307.708V320H394.111V307.708C394.111 306.616 393.215 305.72 392.123 305.72H389.155C388.063 305.72 387.167 306.616 387.167 307.708V320H383.891V307.708C383.891 306.616 383.023 305.72 381.931 305.72H376.975V302.444H381.931C383.135 302.444 384.311 302.892 385.263 303.704L385.543 303.928L385.795 303.704C386.775 302.892 387.923 302.444 389.155 302.444H392.123ZM415.019 302.444C417.903 302.444 420.283 304.796 420.283 307.708V314.764C420.283 317.648 417.903 320 415.019 320H405.919C403.035 320 400.683 317.648 400.683 314.764V307.708C400.683 304.796 403.035 302.444 405.919 302.444H415.019ZM417.007 314.764V307.708C417.007 306.616 416.111 305.72 415.019 305.72H405.919C404.827 305.72 403.931 306.616 403.931 307.708V314.764C403.931 315.856 404.827 316.752 405.919 316.752H415.019C416.111 316.752 417.007 315.856 417.007 314.764ZM439.389 302.444C442.273 302.444 444.625 304.796 444.625 307.708V320H441.349V307.708C441.349 306.616 440.453 305.72 439.389 305.72H428.301V302.444H439.389ZM421.721 303.76L424.017 301.436L428.301 305.72V320H425.025V307.064L421.721 303.76ZM449.602 302.444L457.498 320H453.802L445.906 302.444H449.602ZM464.442 302.444H468.082L458.086 328.176H454.446L457.302 320.84L457.442 320.42L464.442 302.444ZM4.74293 363.28C4.49093 363.364 4.32293 363.616 4.32293 363.896V366.752H20.6469V370H1.07493V363.896C1.07493 362.216 2.13893 360.732 3.73493 360.2L20.6749 353.676V357.12L4.74293 363.28ZM16.9789 350.4C18.8829 350.4 20.4229 351.828 20.6189 353.676H1.07493V350.4H16.9789ZM38.642 350.4C41.526 350.4 43.878 352.78 43.906 355.664V364.764C43.906 367.648 41.526 370 38.642 370H29.542C26.658 370 24.306 367.648 24.306 364.764V355.664C24.306 352.78 26.658 350.4 29.542 350.4H38.642ZM40.63 364.764V355.664C40.63 354.572 39.734 353.676 38.642 353.676H29.542C28.45 353.676 27.554 354.572 27.554 355.664V364.764C27.554 365.856 28.45 366.752 29.542 366.752H38.642C39.734 366.752 40.63 365.856 40.63 364.764ZM50.4991 357.764H47.2511V354.488H50.4991V357.764ZM50.4991 365.94H47.2511V362.664H50.4991V365.94ZM73.1863 353.676H53.6143V350.4H73.1863V353.676ZM61.7623 361.852V358.464L73.2143 353.676V356.896L68.0063 359.024C68.7623 359.024 69.3783 359.108 70.0503 359.388C70.6943 359.64 71.2823 360.06 71.7583 360.564C72.6823 361.572 73.2143 362.944 73.2143 364.288C73.2143 367.452 70.6383 370 67.4743 370H59.3263C56.1623 370 53.6143 367.452 53.6143 364.288V363.672H56.8623V364.288C56.8623 365.66 57.9543 366.752 59.3263 366.752H67.4743C68.8463 366.752 69.9383 365.66 69.9383 364.288C69.9383 362.944 68.8463 361.852 67.4743 361.852H61.7623ZM91.294 350.4C94.178 350.4 96.53 352.78 96.558 355.664V364.764C96.558 367.648 94.178 370 91.294 370H82.194C79.31 370 76.958 367.648 76.958 364.764V355.664C76.958 352.78 79.31 350.4 82.194 350.4H91.294ZM93.282 364.764V355.664C93.282 354.572 92.386 353.676 91.294 353.676H82.194C81.102 353.676 80.206 354.572 80.206 355.664V364.764C80.206 365.856 81.102 366.752 82.194 366.752H91.294C92.386 366.752 93.282 365.856 93.282 364.764ZM159.134 350.4C162.438 350.4 165.127 353.116 165.127 356.42V364.008C165.127 367.312 162.438 370 159.134 370H145.554V350.4H159.134ZM161.879 364.008V356.42C161.879 354.908 160.646 353.676 159.134 353.676H148.802V366.752H159.134C160.646 366.752 161.879 365.52 161.879 364.008ZM187.854 361.656L171.502 363.7V364.764C171.502 365.856 172.398 366.752 173.49 366.752H182.59C183.682 366.752 184.578 365.856 184.578 364.764V364.708H187.854V364.764C187.854 367.648 185.474 370 182.59 370H173.49C170.606 370 168.254 367.648 168.254 364.764V357.708C168.254 354.796 170.606 352.444 173.49 352.444H182.59C185.474 352.444 187.854 354.796 187.854 357.708V361.656ZM171.502 357.708V360.396L184.578 358.772V357.708C184.578 356.616 183.682 355.72 182.59 355.72H173.49C172.398 355.72 171.502 356.616 171.502 357.708ZM189.238 353.816L191.534 351.492L195.818 355.776V370H192.542V357.12L189.238 353.816ZM210.966 352.444C213.878 352.444 216.23 354.796 216.23 357.708V370H212.954V357.708C212.954 356.616 212.058 355.72 210.966 355.72H207.998C206.906 355.72 206.01 356.616 206.01 357.708V370H202.734V357.708C202.734 356.616 201.866 355.72 200.774 355.72H195.818V352.444H200.774C201.978 352.444 203.154 352.892 204.106 353.704L204.386 353.928L204.638 353.704C205.618 352.892 206.766 352.444 207.998 352.444H210.966ZM233.861 352.444C236.745 352.444 239.125 354.796 239.125 357.708V364.764C239.125 367.648 236.745 370 233.861 370H224.761C221.877 370 219.525 367.648 219.525 364.764V357.708C219.525 354.796 221.877 352.444 224.761 352.444H233.861ZM235.849 364.764V357.708C235.849 356.616 234.953 355.72 233.861 355.72H224.761C223.669 355.72 222.773 356.616 222.773 357.708V364.764C222.773 365.856 223.669 366.752 224.761 366.752H233.861C234.953 366.752 235.849 365.856 235.849 364.764ZM267.066 358.576C270.23 358.576 272.806 361.152 272.806 364.288C272.806 367.452 270.23 370 267.066 370H258.918C255.894 370 253.43 367.676 253.206 364.708H256.482C256.678 365.856 257.686 366.752 258.918 366.752H267.066C268.438 366.752 269.53 365.66 269.53 364.288C269.53 362.944 268.438 361.852 267.066 361.852H258.918C255.754 361.852 253.206 359.276 253.206 356.14C253.206 352.976 255.754 350.4 258.918 350.4H267.066C270.09 350.4 272.554 352.752 272.778 355.72H269.502C269.306 354.572 268.298 353.676 267.066 353.676H258.918C257.546 353.676 256.454 354.768 256.454 356.14C256.454 357.484 257.546 358.576 258.918 358.576H267.066ZM285.115 356.756H278.983V364.26C278.983 365.632 280.103 366.752 281.475 366.752H285.115V370H281.475C278.311 370 275.735 367.452 275.735 364.26V350.4H278.983V353.48H285.115V356.756ZM301.946 352.444C304.83 352.444 307.21 354.796 307.21 357.708V364.764C307.21 367.648 304.83 370 301.946 370H292.846C289.962 370 287.61 367.648 287.61 364.764V360.984L303.878 356.896L303.458 356.42C303.066 355.972 302.534 355.72 301.946 355.72H292.846C291.754 355.72 290.858 356.616 290.858 357.708V357.764H287.61V357.708C287.61 354.796 289.962 352.444 292.846 352.444H301.946ZM303.934 364.764V360.256L290.858 363.532V364.764C290.858 365.856 291.754 366.752 292.846 366.752H301.946C303.038 366.752 303.934 365.856 303.934 364.764ZM316.762 352.444H325.946V355.72H316.762C315.054 355.72 313.682 357.092 313.682 358.8V370H310.434V358.8C310.434 355.3 313.262 352.444 316.762 352.444ZM337.411 356.756H331.279V364.26C331.279 365.632 332.399 366.752 333.771 366.752H337.411V370H333.771C330.607 370 328.031 367.452 328.031 364.26V350.4H331.279V353.48H337.411V356.756ZM359.367 357.764H356.091V357.512C356.091 356.532 355.279 355.72 354.299 355.72H344.807C343.827 355.72 343.015 356.532 343.015 357.512C343.015 358.464 343.771 359.22 344.695 359.304L354.607 359.92C357.267 360.088 359.367 362.3 359.367 364.96C359.367 367.76 357.071 370 354.299 370H344.807C342.035 370 339.767 367.76 339.767 364.96V364.708H343.015V364.96C343.015 365.94 343.827 366.752 344.807 366.752H354.299C355.279 366.752 356.091 365.94 356.091 364.96C356.091 364.008 355.363 363.224 354.411 363.168L344.499 362.552C341.839 362.384 339.767 360.172 339.767 357.512C339.767 354.712 342.035 352.444 344.807 352.444H354.299C357.099 352.444 359.367 354.712 359.367 357.512V357.764ZM4.74293 413.28C4.49093 413.364 4.32293 413.616 4.32293 413.896V416.752H20.6469V420H1.07493V413.896C1.07493 412.216 2.13893 410.732 3.73493 410.2L20.6749 403.676V407.12L4.74293 413.28ZM16.9789 400.4C18.8829 400.4 20.4229 401.828 20.6189 403.676H1.07493V400.4H16.9789ZM23.0142 400.4H28.3062V420H25.0302V403.676H23.0142V400.4ZM34.9678 407.764H31.7198V404.488H34.9678V407.764ZM34.9678 415.94H31.7198V412.664H34.9678V415.94ZM57.6551 403.676H38.0831V400.4H57.6551V403.676ZM46.2311 411.852V408.464L57.6831 403.676V406.896L52.4751 409.024C53.2311 409.024 53.8471 409.108 54.5191 409.388C55.1631 409.64 55.7511 410.06 56.2271 410.564C57.1511 411.572 57.6831 412.944 57.6831 414.288C57.6831 417.452 55.1071 420 51.9431 420H43.7951C40.6311 420 38.0831 417.452 38.0831 414.288V413.672H41.3311V414.288C41.3311 415.66 42.4231 416.752 43.7951 416.752H51.9431C53.3151 416.752 54.4071 415.66 54.4071 414.288C54.4071 412.944 53.3151 411.852 51.9431 411.852H46.2311ZM75.7627 400.4C78.6467 400.4 80.9987 402.78 81.0267 405.664V414.764C81.0267 417.648 78.6467 420 75.7627 420H66.6627C63.7787 420 61.4267 417.648 61.4267 414.764V405.664C61.4267 402.78 63.7787 400.4 66.6627 400.4H75.7627ZM77.7507 414.764V405.664C77.7507 404.572 76.8547 403.676 75.7627 403.676H66.6627C65.5707 403.676 64.6747 404.572 64.6747 405.664V414.764C64.6747 415.856 65.5707 416.752 66.6627 416.752H75.7627C76.8547 416.752 77.7507 415.856 77.7507 414.764ZM166.163 400.4C169.467 400.4 172.155 403.116 172.155 406.42V414.008C172.155 417.312 169.467 420 166.163 420H152.583V400.4H166.163ZM168.907 414.008V406.42C168.907 404.908 167.675 403.676 166.163 403.676H155.831V416.752H166.163C167.675 416.752 168.907 415.52 168.907 414.008ZM194.883 411.656L178.531 413.7V414.764C178.531 415.856 179.427 416.752 180.519 416.752H189.619C190.711 416.752 191.607 415.856 191.607 414.764V414.708H194.883V414.764C194.883 417.648 192.503 420 189.619 420H180.519C177.635 420 175.283 417.648 175.283 414.764V407.708C175.283 404.796 177.635 402.444 180.519 402.444H189.619C192.503 402.444 194.883 404.796 194.883 407.708V411.656ZM178.531 407.708V410.396L191.607 408.772V407.708C191.607 406.616 190.711 405.72 189.619 405.72H180.519C179.427 405.72 178.531 406.616 178.531 407.708ZM196.266 403.816L198.562 401.492L202.846 405.776V420H199.57V407.12L196.266 403.816ZM217.994 402.444C220.906 402.444 223.258 404.796 223.258 407.708V420H219.982V407.708C219.982 406.616 219.086 405.72 217.994 405.72H215.026C213.934 405.72 213.038 406.616 213.038 407.708V420H209.762V407.708C209.762 406.616 208.894 405.72 207.802 405.72H202.846V402.444H207.802C209.006 402.444 210.182 402.892 211.134 403.704L211.414 403.928L211.666 403.704C212.646 402.892 213.794 402.444 215.026 402.444H217.994ZM240.889 402.444C243.773 402.444 246.153 404.796 246.153 407.708V414.764C246.153 417.648 243.773 420 240.889 420H231.789C228.905 420 226.553 417.648 226.553 414.764V407.708C226.553 404.796 228.905 402.444 231.789 402.444H240.889ZM242.877 414.764V407.708C242.877 406.616 241.981 405.72 240.889 405.72H231.789C230.697 405.72 229.801 406.616 229.801 407.708V414.764C229.801 415.856 230.697 416.752 231.789 416.752H240.889C241.981 416.752 242.877 415.856 242.877 414.764ZM280.115 407.764H276.867V406.42C276.867 404.908 275.635 403.676 274.123 403.676H266.535C265.023 403.676 263.791 404.908 263.791 406.42V408.576H271.967V411.852H263.791V414.008C263.791 415.52 265.023 416.752 266.535 416.752H274.123C275.635 416.752 276.867 415.52 276.867 414.008V412.664H280.115V414.008C280.115 417.312 277.427 420 274.123 420H266.535C263.231 420 260.543 417.312 260.543 414.008V406.42C260.543 403.116 263.231 400.4 266.535 400.4H274.123C277.427 400.4 280.115 403.116 280.115 406.42V407.764ZM299.385 402.444C302.269 402.444 304.621 404.796 304.621 407.708V420H301.345V407.708C301.345 406.616 300.449 405.72 299.385 405.72H288.297V402.444H299.385ZM281.717 403.76L284.013 401.436L288.297 405.72V420H285.021V407.064L281.717 403.76ZM323.722 400.4H326.998V420H316.162C311.318 420 307.398 416.08 307.398 411.236C307.398 406.392 311.318 402.444 316.162 402.444H323.722V400.4ZM323.722 416.752V405.72H316.162C313.11 405.72 310.646 408.184 310.646 411.236C310.646 414.26 313.11 416.752 316.162 416.752H323.722ZM349.824 407.764H346.548V407.512C346.548 406.532 345.736 405.72 344.756 405.72H335.264C334.284 405.72 333.472 406.532 333.472 407.512C333.472 408.464 334.228 409.22 335.152 409.304L345.064 409.92C347.724 410.088 349.824 412.3 349.824 414.96C349.824 417.76 347.528 420 344.756 420H335.264C332.492 420 330.224 417.76 330.224 414.96V414.708H333.472V414.96C333.472 415.94 334.284 416.752 335.264 416.752H344.756C345.736 416.752 346.548 415.94 346.548 414.96C346.548 414.008 345.82 413.224 344.868 413.168L334.956 412.552C332.296 412.384 330.224 410.172 330.224 407.512C330.224 404.712 332.492 402.444 335.264 402.444H344.756C347.556 402.444 349.824 404.712 349.824 407.512V407.764ZM4.74293 463.28C4.49093 463.364 4.32293 463.616 4.32293 463.896V466.752H20.6469V470H1.07493V463.896C1.07493 462.216 2.13893 460.732 3.73493 460.2L20.6749 453.676V457.12L4.74293 463.28ZM16.9789 450.4C18.8829 450.4 20.4229 451.828 20.6189 453.676H1.07493V450.4H16.9789ZM27.89 463.28C27.638 463.364 27.47 463.616 27.47 463.896V466.752H43.794V470H24.222V463.896C24.222 462.216 25.286 460.732 26.882 460.2L43.822 453.676V457.12L27.89 463.28ZM40.126 450.4C42.03 450.4 43.57 451.828 43.766 453.676H24.222V450.4H40.126ZM50.253 457.764H47.005V454.488H50.253V457.764ZM50.253 465.94H47.005V462.664H50.253V465.94ZM67.9282 450.4C70.8122 450.4 73.1642 452.78 73.1922 455.664V464.764C73.1922 467.648 70.8122 470 67.9282 470H58.8282C55.9442 470 53.5922 467.648 53.5922 464.764V455.664C53.5922 452.78 55.9442 450.4 58.8282 450.4H67.9282ZM69.9162 464.764V455.664C69.9162 454.572 69.0202 453.676 67.9282 453.676H58.8282C57.7362 453.676 56.8402 454.572 56.8402 455.664V464.764C56.8402 465.856 57.7362 466.752 58.8282 466.752H67.9282C69.0202 466.752 69.9162 465.856 69.9162 464.764ZM91.3213 450.4C94.2053 450.4 96.5573 452.78 96.5853 455.664V464.764C96.5853 467.648 94.2053 470 91.3213 470H82.2213C79.3373 470 76.9853 467.648 76.9853 464.764V455.664C76.9853 452.78 79.3373 450.4 82.2213 450.4H91.3213ZM93.3093 464.764V455.664C93.3093 454.572 92.4133 453.676 91.3213 453.676H82.2213C81.1293 453.676 80.2333 454.572 80.2333 455.664V464.764C80.2333 465.856 81.1293 466.752 82.2213 466.752H91.3213C92.4133 466.752 93.3093 465.856 93.3093 464.764ZM164.734 457.764H161.486V456.42C161.486 454.908 160.254 453.676 158.742 453.676H151.154C149.642 453.676 148.41 454.908 148.41 456.42V458.576H156.586V461.852H148.41V464.008C148.41 465.52 149.642 466.752 151.154 466.752H158.742C160.254 466.752 161.486 465.52 161.486 464.008V462.664H164.734V464.008C164.734 467.312 162.046 470 158.742 470H151.154C147.85 470 145.162 467.312 145.162 464.008V456.42C145.162 453.116 147.85 450.4 151.154 450.4H158.742C162.046 450.4 164.734 453.116 164.734 456.42V457.764ZM166.365 452.444H169.557L176.865 470H173.645L166.365 452.444ZM184.145 452.444H187.365L180.057 470H176.865L184.145 452.444ZM208.294 461.656L191.942 463.7V464.764C191.942 465.856 192.838 466.752 193.93 466.752H203.03C204.122 466.752 205.018 465.856 205.018 464.764V464.708H208.294V464.764C208.294 467.648 205.914 470 203.03 470H193.93C191.046 470 188.694 467.648 188.694 464.764V457.708C188.694 454.796 191.046 452.444 193.93 452.444H203.03C205.914 452.444 208.294 454.796 208.294 457.708V461.656ZM191.942 457.708V460.396L205.018 458.772V457.708C205.018 456.616 204.122 455.72 203.03 455.72H193.93C192.838 455.72 191.942 456.616 191.942 457.708ZM227.346 452.444C230.23 452.444 232.582 454.796 232.582 457.708V470H229.306V457.708C229.306 456.616 228.41 455.72 227.346 455.72H216.258V452.444H227.346ZM209.678 453.76L211.974 451.436L216.258 455.72V470H212.982V457.064L209.678 453.76ZM245.411 456.756H239.279V464.26C239.279 465.632 240.399 466.752 241.771 466.752H245.411V470H241.771C238.607 470 236.031 467.452 236.031 464.26V450.4H239.279V453.48H245.411V456.756ZM278.87 457.764H275.622V456.42C275.622 454.908 274.39 453.676 272.878 453.676H265.29C263.778 453.676 262.546 454.908 262.546 456.42V458.576H270.722V461.852H262.546V464.008C262.546 465.52 263.778 466.752 265.29 466.752H272.878C274.39 466.752 275.622 465.52 275.622 464.008V462.664H278.87V464.008C278.87 467.312 276.182 470 272.878 470H265.29C261.986 470 259.298 467.312 259.298 464.008V456.42C259.298 453.116 261.986 450.4 265.29 450.4H272.878C276.182 450.4 278.87 453.116 278.87 456.42V457.764ZM298.141 452.444C301.025 452.444 303.377 454.796 303.377 457.708V470H300.101V457.708C300.101 456.616 299.205 455.72 298.141 455.72H287.053V452.444H298.141ZM280.473 453.76L282.769 451.436L287.053 455.72V470H283.777V457.064L280.473 453.76ZM322.478 450.4H325.754V470H314.918C310.074 470 306.154 466.08 306.154 461.236C306.154 456.392 310.074 452.444 314.918 452.444H322.478V450.4ZM322.478 466.752V455.72H314.918C311.866 455.72 309.402 458.184 309.402 461.236C309.402 464.26 311.866 466.752 314.918 466.752H322.478ZM348.579 457.764H345.303V457.512C345.303 456.532 344.491 455.72 343.511 455.72H334.019C333.039 455.72 332.227 456.532 332.227 457.512C332.227 458.464 332.983 459.22 333.907 459.304L343.819 459.92C346.479 460.088 348.579 462.3 348.579 464.96C348.579 467.76 346.283 470 343.511 470H334.019C331.247 470 328.979 467.76 328.979 464.96V464.708H332.227V464.96C332.227 465.94 333.039 466.752 334.019 466.752H343.511C344.491 466.752 345.303 465.94 345.303 464.96C345.303 464.008 344.575 463.224 343.623 463.168L333.711 462.552C331.051 462.384 328.979 460.172 328.979 457.512C328.979 454.712 331.247 452.444 334.019 452.444H343.511C346.311 452.444 348.579 454.712 348.579 457.512V457.764Z" fill="#E7E7E7"/>
</svg>
