<svg width="355" height="90" viewBox="0 0 355 90" fill="none" xmlns="http://www.w3.org/2000/svg">
<path d="M18.24 60V26.04H1.26V18H43.26V26.04H26.28V60H18.24ZM57.1313 24.12L52.3313 28.98V34.5L57.1313 39.36V60H49.0913V18H57.1313V24.12ZM84.6375 50.28V33.36H73.2975V60H65.2575V30.12H69.6375L74.4975 25.26H81.0975L85.8975 30.12H91.4175L96.2775 25.26H102.878L107.738 30.12H112.118V60H104.018V33.36H92.7375V50.28H84.6375ZM162.146 60H127.646L120.146 52.5V32.76L127.646 25.26H162.146V40.68L150.866 51.96H162.146V60ZM128.186 36.12V49.2L130.946 51.96H139.466L154.046 37.32V33.36H130.946L128.186 36.12ZM178.713 60H170.673V18H178.713V60ZM195.94 24.12L191.14 28.98V34.5L195.94 39.36V60H187.9V18H195.94V24.12ZM238.206 60V36.12L235.446 33.36H212.346V60H204.306V25.26H210.426L215.286 30.12H220.806L225.606 25.26H238.806L246.306 32.76V60H238.206ZM296.15 60H261.65L254.15 52.5V32.76L261.65 25.26H296.15V40.68L284.87 51.96H296.15V60ZM262.19 36.12V49.2L264.95 51.96H273.47L288.05 37.32V33.36H264.95L262.19 36.12Z" fill="#07D6D1"/>
</svg>
