<svg width="56" height="2055" viewBox="0 0 56 2055" fill="none" xmlns="http://www.w3.org/2000/svg">
<g opacity="0.6" filter="url(#filter0_d_1417_2596)">
<path d="M4 24C4 37.2548 14.7452 48 28 48C41.2548 48 52 37.2548 52 24C52 10.7452 41.2548 5.79387e-07 28 0C14.7452 -5.79387e-07 4 10.7452 4 24ZM3.99991 2023C3.99991 2036.25 14.7451 2047 27.9999 2047C41.2547 2047 51.9999 2036.25 51.9999 2023C51.9999 2009.75 41.2547 1999 27.9999 1999C14.7451 1999 3.99991 2009.75 3.99991 2023ZM23.5 24L23.4999 2023L32.4999 2023L32.5 24L23.5 24Z" fill="#06EBE5"/>
</g>
<defs>
<filter id="filter0_d_1417_2596" x="0" y="0" width="56" height="2055" filterUnits="userSpaceOnUse" color-interpolation-filters="sRGB">
<feFlood flood-opacity="0" result="BackgroundImageFix"/>
<feColorMatrix in="SourceAlpha" type="matrix" values="0 0 0 0 0 0 0 0 0 0 0 0 0 0 0 0 0 0 127 0" result="hardAlpha"/>
<feOffset dy="4"/>
<feGaussianBlur stdDeviation="2"/>
<feComposite in2="hardAlpha" operator="out"/>
<feColorMatrix type="matrix" values="0 0 0 0 0 0 0 0 0 0 0 0 0 0 0 0 0 0 0.25 0"/>
<feBlend mode="normal" in2="BackgroundImageFix" result="effect1_dropShadow_1417_2596"/>
<feBlend mode="normal" in="SourceGraphic" in2="effect1_dropShadow_1417_2596" result="shape"/>
</filter>
</defs>
</svg>
